<mxfile host="app.diagrams.net" modified="2023-05-22T21:37:17.429Z" agent="Mozilla/5.0 (Windows NT 10.0; Win64; x64) AppleWebKit/537.36 (KHTML, like Gecko) Chrome/113.0.0.0 Safari/537.36 Edg/113.0.1774.50" etag="yjZJ6Z8i3hUEBTAarmBZ" version="21.3.2" type="github" pages="7">
  <diagram name="Bản sao của Class Diagram" id="j3hNW8woMEeNuRztFPho">
    <mxGraphModel dx="1107" dy="707" grid="1" gridSize="10" guides="1" tooltips="1" connect="1" arrows="1" fold="1" page="1" pageScale="1" pageWidth="1200" pageHeight="1000" math="0" shadow="0">
      <root>
        <mxCell id="HlsSpw4q8ErfwoMd-PJN-0" />
        <mxCell id="HlsSpw4q8ErfwoMd-PJN-1" parent="HlsSpw4q8ErfwoMd-PJN-0" />
        <mxCell id="HlsSpw4q8ErfwoMd-PJN-2" value="Роль" style="swimlane;fontStyle=1;align=center;verticalAlign=top;childLayout=stackLayout;horizontal=1;startSize=26;horizontalStack=0;resizeParent=1;resizeParentMax=0;resizeLast=0;collapsible=1;marginBottom=0;" parent="HlsSpw4q8ErfwoMd-PJN-1" vertex="1">
          <mxGeometry x="120" y="100" width="160" height="88" as="geometry" />
        </mxCell>
        <mxCell id="HlsSpw4q8ErfwoMd-PJN-3" value="#role_id: int&#xa;#role_title:&#xa;#role_description&#xa;" style="text;strokeColor=none;fillColor=none;align=left;verticalAlign=top;spacingLeft=4;spacingRight=4;overflow=hidden;rotatable=0;points=[[0,0.5],[1,0.5]];portConstraint=eastwest;" parent="HlsSpw4q8ErfwoMd-PJN-2" vertex="1">
          <mxGeometry y="26" width="160" height="54" as="geometry" />
        </mxCell>
        <mxCell id="HlsSpw4q8ErfwoMd-PJN-4" value="" style="line;strokeWidth=1;fillColor=none;align=left;verticalAlign=middle;spacingTop=-1;spacingLeft=3;spacingRight=3;rotatable=0;labelPosition=right;points=[];portConstraint=eastwest;strokeColor=inherit;" parent="HlsSpw4q8ErfwoMd-PJN-2" vertex="1">
          <mxGeometry y="80" width="160" height="8" as="geometry" />
        </mxCell>
        <mxCell id="HlsSpw4q8ErfwoMd-PJN-6" value="Разрешение" style="swimlane;fontStyle=1;align=center;verticalAlign=top;childLayout=stackLayout;horizontal=1;startSize=26;horizontalStack=0;resizeParent=1;resizeParentMax=0;resizeLast=0;collapsible=1;marginBottom=0;" parent="HlsSpw4q8ErfwoMd-PJN-1" vertex="1">
          <mxGeometry x="390" y="50" width="200" height="88" as="geometry" />
        </mxCell>
        <mxCell id="HlsSpw4q8ErfwoMd-PJN-7" value="+ permission_title: string&#xa;+ permission_module: string&#xa;+ permission_description: string&#xa;" style="text;strokeColor=none;fillColor=none;align=left;verticalAlign=top;spacingLeft=4;spacingRight=4;overflow=hidden;rotatable=0;points=[[0,0.5],[1,0.5]];portConstraint=eastwest;" parent="HlsSpw4q8ErfwoMd-PJN-6" vertex="1">
          <mxGeometry y="26" width="200" height="54" as="geometry" />
        </mxCell>
        <mxCell id="HlsSpw4q8ErfwoMd-PJN-8" value="" style="line;strokeWidth=1;fillColor=none;align=left;verticalAlign=middle;spacingTop=-1;spacingLeft=3;spacingRight=3;rotatable=0;labelPosition=right;points=[];portConstraint=eastwest;strokeColor=inherit;" parent="HlsSpw4q8ErfwoMd-PJN-6" vertex="1">
          <mxGeometry y="80" width="200" height="8" as="geometry" />
        </mxCell>
        <mxCell id="HlsSpw4q8ErfwoMd-PJN-10" value="Управлять" style="endArrow=block;endFill=0;html=1;rounded=0;entryX=0;entryY=0.5;entryDx=0;entryDy=0;endSize=10;" parent="HlsSpw4q8ErfwoMd-PJN-1" source="HlsSpw4q8ErfwoMd-PJN-11" edge="1">
          <mxGeometry width="160" relative="1" as="geometry">
            <mxPoint x="310" y="450" as="sourcePoint" />
            <mxPoint x="390" y="100" as="targetPoint" />
            <Array as="points" />
          </mxGeometry>
        </mxCell>
        <mxCell id="HlsSpw4q8ErfwoMd-PJN-11" value="Юзер" style="swimlane;fontStyle=1;align=center;verticalAlign=top;childLayout=stackLayout;horizontal=1;startSize=26;horizontalStack=0;resizeParent=1;resizeParentMax=0;resizeLast=0;collapsible=1;marginBottom=0;" parent="HlsSpw4q8ErfwoMd-PJN-1" vertex="1">
          <mxGeometry x="120" y="340" width="190" height="158" as="geometry" />
        </mxCell>
        <mxCell id="HlsSpw4q8ErfwoMd-PJN-12" value="+user_id: int&#xa;+user_role_id: int&#xa;+user_name: string&#xa;-user_password: string&#xa;+user_address: int&#xa;+user_phone: string&#xa;-user_forgot_password_code: &#xa;+user_package: object&#xa;" style="text;strokeColor=none;fillColor=none;align=left;verticalAlign=top;spacingLeft=4;spacingRight=4;overflow=hidden;rotatable=0;points=[[0,0.5],[1,0.5]];portConstraint=eastwest;" parent="HlsSpw4q8ErfwoMd-PJN-11" vertex="1">
          <mxGeometry y="26" width="190" height="124" as="geometry" />
        </mxCell>
        <mxCell id="HlsSpw4q8ErfwoMd-PJN-13" value="" style="endArrow=block;endFill=0;html=1;rounded=0;exitX=1;exitY=0.5;exitDx=0;exitDy=0;entryX=0;entryY=0.5;entryDx=0;entryDy=0;endSize=10;" parent="HlsSpw4q8ErfwoMd-PJN-11" target="HlsSpw4q8ErfwoMd-PJN-3" edge="1">
          <mxGeometry width="160" relative="1" as="geometry">
            <mxPoint y="60" as="sourcePoint" />
            <mxPoint x="100" y="-70" as="targetPoint" />
            <Array as="points">
              <mxPoint x="-80" y="60" />
              <mxPoint x="-80" y="-187" />
            </Array>
          </mxGeometry>
        </mxCell>
        <mxCell id="HlsSpw4q8ErfwoMd-PJN-14" value="" style="line;strokeWidth=1;fillColor=none;align=left;verticalAlign=middle;spacingTop=-1;spacingLeft=3;spacingRight=3;rotatable=0;labelPosition=right;points=[];portConstraint=eastwest;strokeColor=inherit;" parent="HlsSpw4q8ErfwoMd-PJN-11" vertex="1">
          <mxGeometry y="150" width="190" height="8" as="geometry" />
        </mxCell>
        <mxCell id="HlsSpw4q8ErfwoMd-PJN-16" value="Членство" style="swimlane;fontStyle=1;align=center;verticalAlign=top;childLayout=stackLayout;horizontal=1;startSize=26;horizontalStack=0;resizeParent=1;resizeParentMax=0;resizeLast=0;collapsible=1;marginBottom=0;" parent="HlsSpw4q8ErfwoMd-PJN-1" vertex="1">
          <mxGeometry x="370" y="610" width="210" height="178" as="geometry" />
        </mxCell>
        <mxCell id="HlsSpw4q8ErfwoMd-PJN-17" value="+member_id: int&#xa;+member_name: int&#xa;+member_phone: string&#xa;+member_username: string&#xa;-member_password: string&#xa;+member_email: string&#xa;+member_address: string &#xa;-packageID: int&#xa;-joinDate: Date" style="text;strokeColor=none;fillColor=none;align=left;verticalAlign=top;spacingLeft=4;spacingRight=4;overflow=hidden;rotatable=0;points=[[0,0.5],[1,0.5]];portConstraint=eastwest;" parent="HlsSpw4q8ErfwoMd-PJN-16" vertex="1">
          <mxGeometry y="26" width="210" height="144" as="geometry" />
        </mxCell>
        <mxCell id="HlsSpw4q8ErfwoMd-PJN-18" value="" style="line;strokeWidth=1;fillColor=none;align=left;verticalAlign=middle;spacingTop=-1;spacingLeft=3;spacingRight=3;rotatable=0;labelPosition=right;points=[];portConstraint=eastwest;strokeColor=inherit;" parent="HlsSpw4q8ErfwoMd-PJN-16" vertex="1">
          <mxGeometry y="170" width="210" height="8" as="geometry" />
        </mxCell>
        <mxCell id="HlsSpw4q8ErfwoMd-PJN-20" value="Пакет" style="swimlane;fontStyle=1;align=center;verticalAlign=top;childLayout=stackLayout;horizontal=1;startSize=26;horizontalStack=0;resizeParent=1;resizeParentMax=0;resizeLast=0;collapsible=1;marginBottom=0;" parent="HlsSpw4q8ErfwoMd-PJN-1" vertex="1">
          <mxGeometry x="70" y="690" width="200" height="138" as="geometry" />
        </mxCell>
        <mxCell id="HlsSpw4q8ErfwoMd-PJN-21" value="-package_id: int&#xa;-package_name: string&#xa;-duration: int&#xa;-price: double&#xa;-package_type: string&#xa;-package_status: string" style="text;strokeColor=none;fillColor=none;align=left;verticalAlign=top;spacingLeft=4;spacingRight=4;overflow=hidden;rotatable=0;points=[[0,0.5],[1,0.5]];portConstraint=eastwest;" parent="HlsSpw4q8ErfwoMd-PJN-20" vertex="1">
          <mxGeometry y="26" width="200" height="104" as="geometry" />
        </mxCell>
        <mxCell id="HlsSpw4q8ErfwoMd-PJN-22" value="" style="line;strokeWidth=1;fillColor=none;align=left;verticalAlign=middle;spacingTop=-1;spacingLeft=3;spacingRight=3;rotatable=0;labelPosition=right;points=[];portConstraint=eastwest;strokeColor=inherit;" parent="HlsSpw4q8ErfwoMd-PJN-20" vertex="1">
          <mxGeometry y="130" width="200" height="8" as="geometry" />
        </mxCell>
        <mxCell id="HlsSpw4q8ErfwoMd-PJN-24" value="" style="endArrow=none;html=1;edgeStyle=orthogonalEdgeStyle;rounded=0;exitX=1;exitY=0.685;exitDx=0;exitDy=0;exitPerimeter=0;entryX=-0.002;entryY=0.701;entryDx=0;entryDy=0;entryPerimeter=0;" parent="HlsSpw4q8ErfwoMd-PJN-1" source="HlsSpw4q8ErfwoMd-PJN-21" target="HlsSpw4q8ErfwoMd-PJN-17" edge="1">
          <mxGeometry relative="1" as="geometry">
            <mxPoint x="300" y="750" as="sourcePoint" />
            <mxPoint x="460" y="750" as="targetPoint" />
          </mxGeometry>
        </mxCell>
        <mxCell id="HlsSpw4q8ErfwoMd-PJN-25" value="1" style="edgeLabel;resizable=0;html=1;align=left;verticalAlign=bottom;" parent="HlsSpw4q8ErfwoMd-PJN-24" connectable="0" vertex="1">
          <mxGeometry x="-1" relative="1" as="geometry" />
        </mxCell>
        <mxCell id="HlsSpw4q8ErfwoMd-PJN-26" value="1" style="edgeLabel;resizable=0;html=1;align=right;verticalAlign=bottom;" parent="HlsSpw4q8ErfwoMd-PJN-24" connectable="0" vertex="1">
          <mxGeometry x="1" relative="1" as="geometry" />
        </mxCell>
        <mxCell id="HlsSpw4q8ErfwoMd-PJN-27" value="" style="endArrow=block;endFill=0;html=1;rounded=0;exitX=0.908;exitY=-0.01;exitDx=0;exitDy=0;entryX=0.852;entryY=0.675;entryDx=0;entryDy=0;entryPerimeter=0;exitPerimeter=0;endSize=10;" parent="HlsSpw4q8ErfwoMd-PJN-1" source="HlsSpw4q8ErfwoMd-PJN-16" target="HlsSpw4q8ErfwoMd-PJN-8" edge="1">
          <mxGeometry width="160" relative="1" as="geometry">
            <mxPoint x="360" y="450" as="sourcePoint" />
            <mxPoint x="561.2" y="220.98400000000004" as="targetPoint" />
          </mxGeometry>
        </mxCell>
        <mxCell id="HlsSpw4q8ErfwoMd-PJN-28" value="Расписание" style="swimlane;fontStyle=1;align=center;verticalAlign=top;childLayout=stackLayout;horizontal=1;startSize=26;horizontalStack=0;resizeParent=1;resizeParentMax=0;resizeLast=0;collapsible=1;marginBottom=0;" parent="HlsSpw4q8ErfwoMd-PJN-1" vertex="1">
          <mxGeometry x="730" y="250" width="200" height="128" as="geometry" />
        </mxCell>
        <mxCell id="HlsSpw4q8ErfwoMd-PJN-29" value="+schedule_id: int&#xa;+schedule_date: date&#xa;+schedule_time_slot: string&#xa;+schedule_status: string&#xa;-staff_id: int" style="text;strokeColor=none;fillColor=none;align=left;verticalAlign=top;spacingLeft=4;spacingRight=4;overflow=hidden;rotatable=0;points=[[0,0.5],[1,0.5]];portConstraint=eastwest;" parent="HlsSpw4q8ErfwoMd-PJN-28" vertex="1">
          <mxGeometry y="26" width="200" height="94" as="geometry" />
        </mxCell>
        <mxCell id="HlsSpw4q8ErfwoMd-PJN-30" value="" style="line;strokeWidth=1;fillColor=none;align=left;verticalAlign=middle;spacingTop=-1;spacingLeft=3;spacingRight=3;rotatable=0;labelPosition=right;points=[];portConstraint=eastwest;strokeColor=inherit;" parent="HlsSpw4q8ErfwoMd-PJN-28" vertex="1">
          <mxGeometry y="120" width="200" height="8" as="geometry" />
        </mxCell>
        <mxCell id="HlsSpw4q8ErfwoMd-PJN-32" value="Фитнес-класс" style="swimlane;fontStyle=1;align=center;verticalAlign=top;childLayout=stackLayout;horizontal=1;startSize=26;horizontalStack=0;resizeParent=1;resizeParentMax=0;resizeLast=0;collapsible=1;marginBottom=0;" parent="HlsSpw4q8ErfwoMd-PJN-1" vertex="1">
          <mxGeometry x="600" y="690" width="200" height="138" as="geometry" />
        </mxCell>
        <mxCell id="HlsSpw4q8ErfwoMd-PJN-33" value="-gym_id: int&#xa;-gym_name: string&#xa;-gym_description: string&#xa;-gym_type: string&#xa;-gym_trainer: string" style="text;strokeColor=none;fillColor=none;align=left;verticalAlign=top;spacingLeft=4;spacingRight=4;overflow=hidden;rotatable=0;points=[[0,0.5],[1,0.5]];portConstraint=eastwest;" parent="HlsSpw4q8ErfwoMd-PJN-32" vertex="1">
          <mxGeometry y="26" width="200" height="104" as="geometry" />
        </mxCell>
        <mxCell id="HlsSpw4q8ErfwoMd-PJN-34" value="" style="line;strokeWidth=1;fillColor=none;align=left;verticalAlign=middle;spacingTop=-1;spacingLeft=3;spacingRight=3;rotatable=0;labelPosition=right;points=[];portConstraint=eastwest;strokeColor=inherit;" parent="HlsSpw4q8ErfwoMd-PJN-32" vertex="1">
          <mxGeometry y="130" width="200" height="8" as="geometry" />
        </mxCell>
        <mxCell id="HlsSpw4q8ErfwoMd-PJN-36" value="Оплата" style="swimlane;fontStyle=1;align=center;verticalAlign=top;childLayout=stackLayout;horizontal=1;startSize=26;horizontalStack=0;resizeParent=1;resizeParentMax=0;resizeLast=0;collapsible=1;marginBottom=0;" parent="HlsSpw4q8ErfwoMd-PJN-1" vertex="1">
          <mxGeometry x="355" y="340" width="180" height="128" as="geometry" />
        </mxCell>
        <mxCell id="HlsSpw4q8ErfwoMd-PJN-37" value="-payment_id: int&#xa;-payment_customer_id: int&#xa;-payment_account: string&#xa;-payment_description: string&#xa;-payment_status: string&#xa;-payment_date: date" style="text;strokeColor=none;fillColor=none;align=left;verticalAlign=top;spacingLeft=4;spacingRight=4;overflow=hidden;rotatable=0;points=[[0,0.5],[1,0.5]];portConstraint=eastwest;" parent="HlsSpw4q8ErfwoMd-PJN-36" vertex="1">
          <mxGeometry y="26" width="180" height="94" as="geometry" />
        </mxCell>
        <mxCell id="HlsSpw4q8ErfwoMd-PJN-38" value="" style="line;strokeWidth=1;fillColor=none;align=left;verticalAlign=middle;spacingTop=-1;spacingLeft=3;spacingRight=3;rotatable=0;labelPosition=right;points=[];portConstraint=eastwest;strokeColor=inherit;" parent="HlsSpw4q8ErfwoMd-PJN-36" vertex="1">
          <mxGeometry y="120" width="180" height="8" as="geometry" />
        </mxCell>
        <mxCell id="HlsSpw4q8ErfwoMd-PJN-40" value="" style="endArrow=block;endFill=0;html=1;rounded=0;entryX=1;entryY=0.5;entryDx=0;entryDy=0;exitX=0;exitY=0.681;exitDx=0;exitDy=0;exitPerimeter=0;endSize=10;" parent="HlsSpw4q8ErfwoMd-PJN-1" source="HlsSpw4q8ErfwoMd-PJN-29" target="HlsSpw4q8ErfwoMd-PJN-7" edge="1">
          <mxGeometry width="160" relative="1" as="geometry">
            <mxPoint x="710" y="200" as="sourcePoint" />
            <mxPoint x="640" y="350" as="targetPoint" />
          </mxGeometry>
        </mxCell>
        <mxCell id="HlsSpw4q8ErfwoMd-PJN-41" value="Тренер" style="swimlane;fontStyle=1;align=center;verticalAlign=top;childLayout=stackLayout;horizontal=1;startSize=26;horizontalStack=0;resizeParent=1;resizeParentMax=0;resizeLast=0;collapsible=1;marginBottom=0;" parent="HlsSpw4q8ErfwoMd-PJN-1" vertex="1">
          <mxGeometry x="980" y="530" width="200" height="138" as="geometry" />
        </mxCell>
        <mxCell id="HlsSpw4q8ErfwoMd-PJN-42" value="+trainer_id: int&#xa;+trainer_name: string&#xa;+trainer_phone: string&#xa;+trainer_username: string&#xa;-trainer_password:: string&#xa;+trainer_email: string&#xa;+trainer_address: string" style="text;strokeColor=none;fillColor=none;align=left;verticalAlign=top;spacingLeft=4;spacingRight=4;overflow=hidden;rotatable=0;points=[[0,0.5],[1,0.5]];portConstraint=eastwest;" parent="HlsSpw4q8ErfwoMd-PJN-41" vertex="1">
          <mxGeometry y="26" width="200" height="104" as="geometry" />
        </mxCell>
        <mxCell id="HlsSpw4q8ErfwoMd-PJN-43" value="" style="line;strokeWidth=1;fillColor=none;align=left;verticalAlign=middle;spacingTop=-1;spacingLeft=3;spacingRight=3;rotatable=0;labelPosition=right;points=[];portConstraint=eastwest;strokeColor=inherit;" parent="HlsSpw4q8ErfwoMd-PJN-41" vertex="1">
          <mxGeometry y="130" width="200" height="8" as="geometry" />
        </mxCell>
        <mxCell id="HlsSpw4q8ErfwoMd-PJN-45" value="Управлять" style="endArrow=block;endFill=0;html=1;rounded=0;exitX=0;exitY=0.5;exitDx=0;exitDy=0;endSize=10;entryX=1;entryY=0.5;entryDx=0;entryDy=0;" parent="HlsSpw4q8ErfwoMd-PJN-1" source="HlsSpw4q8ErfwoMd-PJN-42" target="HlsSpw4q8ErfwoMd-PJN-29" edge="1">
          <mxGeometry width="160" relative="1" as="geometry">
            <mxPoint x="470" y="650" as="sourcePoint" />
            <mxPoint x="940" y="320" as="targetPoint" />
          </mxGeometry>
        </mxCell>
        <mxCell id="HlsSpw4q8ErfwoMd-PJN-46" value="Управлять" style="endArrow=block;endFill=0;html=1;rounded=0;exitX=-0.014;exitY=0.856;exitDx=0;exitDy=0;exitPerimeter=0;entryX=1.006;entryY=0.587;entryDx=0;entryDy=0;entryPerimeter=0;endSize=10;" parent="HlsSpw4q8ErfwoMd-PJN-1" source="HlsSpw4q8ErfwoMd-PJN-42" target="HlsSpw4q8ErfwoMd-PJN-33" edge="1">
          <mxGeometry width="160" relative="1" as="geometry">
            <mxPoint x="470" y="650" as="sourcePoint" />
            <mxPoint x="630" y="650" as="targetPoint" />
          </mxGeometry>
        </mxCell>
        <mxCell id="HlsSpw4q8ErfwoMd-PJN-47" value="1" style="text;html=1;resizable=0;autosize=1;align=center;verticalAlign=middle;points=[];fillColor=none;strokeColor=none;rounded=0;" parent="HlsSpw4q8ErfwoMd-PJN-1" vertex="1">
          <mxGeometry x="950" y="570" width="30" height="30" as="geometry" />
        </mxCell>
        <mxCell id="HlsSpw4q8ErfwoMd-PJN-48" value="0..*" style="text;html=1;resizable=0;autosize=1;align=center;verticalAlign=middle;points=[];fillColor=none;strokeColor=none;rounded=0;" parent="HlsSpw4q8ErfwoMd-PJN-1" vertex="1">
          <mxGeometry x="790" y="770" width="40" height="30" as="geometry" />
        </mxCell>
        <mxCell id="HlsSpw4q8ErfwoMd-PJN-49" value="1" style="text;html=1;resizable=0;autosize=1;align=center;verticalAlign=middle;points=[];fillColor=none;strokeColor=none;rounded=0;" parent="HlsSpw4q8ErfwoMd-PJN-1" vertex="1">
          <mxGeometry x="950" y="620" width="30" height="30" as="geometry" />
        </mxCell>
        <mxCell id="HlsSpw4q8ErfwoMd-PJN-50" value="1..*" style="text;html=1;resizable=0;autosize=1;align=center;verticalAlign=middle;points=[];fillColor=none;strokeColor=none;rounded=0;" parent="HlsSpw4q8ErfwoMd-PJN-1" vertex="1">
          <mxGeometry x="930" y="320" width="40" height="30" as="geometry" />
        </mxCell>
        <mxCell id="HlsSpw4q8ErfwoMd-PJN-51" value="1" style="text;html=1;resizable=0;autosize=1;align=center;verticalAlign=middle;points=[];fillColor=none;strokeColor=none;rounded=0;" parent="HlsSpw4q8ErfwoMd-PJN-1" vertex="1">
          <mxGeometry x="750" y="660" width="30" height="30" as="geometry" />
        </mxCell>
        <mxCell id="HlsSpw4q8ErfwoMd-PJN-52" value="1..*" style="text;html=1;resizable=0;autosize=1;align=center;verticalAlign=middle;points=[];fillColor=none;strokeColor=none;rounded=0;" parent="HlsSpw4q8ErfwoMd-PJN-1" vertex="1">
          <mxGeometry x="745" y="389" width="40" height="30" as="geometry" />
        </mxCell>
        <mxCell id="HlsSpw4q8ErfwoMd-PJN-53" value="1" style="text;html=1;resizable=0;autosize=1;align=center;verticalAlign=middle;points=[];fillColor=none;strokeColor=none;rounded=0;" parent="HlsSpw4q8ErfwoMd-PJN-1" vertex="1">
          <mxGeometry x="250" y="310" width="30" height="30" as="geometry" />
        </mxCell>
        <mxCell id="HlsSpw4q8ErfwoMd-PJN-54" value="0..*" style="text;html=1;resizable=0;autosize=1;align=center;verticalAlign=middle;points=[];fillColor=none;strokeColor=none;rounded=0;" parent="HlsSpw4q8ErfwoMd-PJN-1" vertex="1">
          <mxGeometry x="350" y="90" width="40" height="30" as="geometry" />
        </mxCell>
        <mxCell id="HlsSpw4q8ErfwoMd-PJN-55" value="1" style="text;html=1;resizable=0;autosize=1;align=center;verticalAlign=middle;points=[];fillColor=none;strokeColor=none;rounded=0;" parent="HlsSpw4q8ErfwoMd-PJN-1" vertex="1">
          <mxGeometry x="90" y="400" width="30" height="30" as="geometry" />
        </mxCell>
        <mxCell id="HlsSpw4q8ErfwoMd-PJN-56" value="1" style="text;html=1;resizable=0;autosize=1;align=center;verticalAlign=middle;points=[];fillColor=none;strokeColor=none;rounded=0;" parent="HlsSpw4q8ErfwoMd-PJN-1" vertex="1">
          <mxGeometry x="90" y="160" width="30" height="30" as="geometry" />
        </mxCell>
        <mxCell id="HlsSpw4q8ErfwoMd-PJN-57" value="1" style="text;html=1;resizable=0;autosize=1;align=center;verticalAlign=middle;points=[];fillColor=none;strokeColor=none;rounded=0;" parent="HlsSpw4q8ErfwoMd-PJN-1" vertex="1">
          <mxGeometry x="410" y="580" width="30" height="30" as="geometry" />
        </mxCell>
        <mxCell id="HlsSpw4q8ErfwoMd-PJN-58" value="1" style="text;html=1;resizable=0;autosize=1;align=center;verticalAlign=middle;points=[];fillColor=none;strokeColor=none;rounded=0;" parent="HlsSpw4q8ErfwoMd-PJN-1" vertex="1">
          <mxGeometry x="430" y="310" width="30" height="30" as="geometry" />
        </mxCell>
        <mxCell id="HlsSpw4q8ErfwoMd-PJN-59" value="0..*" style="text;html=1;resizable=0;autosize=1;align=center;verticalAlign=middle;points=[];fillColor=none;strokeColor=none;rounded=0;" parent="HlsSpw4q8ErfwoMd-PJN-1" vertex="1">
          <mxGeometry x="560" y="140" width="40" height="30" as="geometry" />
        </mxCell>
        <mxCell id="HlsSpw4q8ErfwoMd-PJN-60" value="1" style="text;html=1;resizable=0;autosize=1;align=center;verticalAlign=middle;points=[];fillColor=none;strokeColor=none;rounded=0;" parent="HlsSpw4q8ErfwoMd-PJN-1" vertex="1">
          <mxGeometry x="700" y="280" width="30" height="30" as="geometry" />
        </mxCell>
        <mxCell id="HlsSpw4q8ErfwoMd-PJN-61" value="1" style="text;html=1;resizable=0;autosize=1;align=center;verticalAlign=middle;points=[];fillColor=none;strokeColor=none;rounded=0;" parent="HlsSpw4q8ErfwoMd-PJN-1" vertex="1">
          <mxGeometry x="580" y="110" width="30" height="30" as="geometry" />
        </mxCell>
        <mxCell id="HlsSpw4q8ErfwoMd-PJN-62" value="" style="endArrow=diamondThin;endFill=0;html=1;rounded=0;exitX=0.75;exitY=0;exitDx=0;exitDy=0;endSize=20;entryX=0.106;entryY=1.125;entryDx=0;entryDy=0;entryPerimeter=0;" parent="HlsSpw4q8ErfwoMd-PJN-1" source="HlsSpw4q8ErfwoMd-PJN-32" target="HlsSpw4q8ErfwoMd-PJN-30" edge="1">
          <mxGeometry width="160" relative="1" as="geometry">
            <mxPoint x="480" y="550" as="sourcePoint" />
            <mxPoint x="750.8" y="460.164" as="targetPoint" />
            <Array as="points" />
          </mxGeometry>
        </mxCell>
        <mxCell id="HlsSpw4q8ErfwoMd-PJN-63" value="" style="endArrow=diamondThin;endFill=1;endSize=20;html=1;rounded=0;entryX=0.996;entryY=0.682;entryDx=0;entryDy=0;entryPerimeter=0;exitX=0.003;exitY=0.585;exitDx=0;exitDy=0;exitPerimeter=0;" parent="HlsSpw4q8ErfwoMd-PJN-1" source="HlsSpw4q8ErfwoMd-PJN-37" target="HlsSpw4q8ErfwoMd-PJN-12" edge="1">
          <mxGeometry width="160" relative="1" as="geometry">
            <mxPoint x="340" y="430" as="sourcePoint" />
            <mxPoint x="640" y="460" as="targetPoint" />
          </mxGeometry>
        </mxCell>
        <mxCell id="HlsSpw4q8ErfwoMd-PJN-64" value="" style="endArrow=block;endFill=0;html=1;rounded=0;entryX=0.192;entryY=1.085;entryDx=0;entryDy=0;entryPerimeter=0;endSize=10;" parent="HlsSpw4q8ErfwoMd-PJN-1" target="HlsSpw4q8ErfwoMd-PJN-7" edge="1">
          <mxGeometry width="160" relative="1" as="geometry">
            <mxPoint x="430" y="340" as="sourcePoint" />
            <mxPoint x="470" y="150" as="targetPoint" />
          </mxGeometry>
        </mxCell>
        <mxCell id="HlsSpw4q8ErfwoMd-PJN-65" value="1" style="text;html=1;resizable=0;autosize=1;align=center;verticalAlign=middle;points=[];fillColor=none;strokeColor=none;rounded=0;" parent="HlsSpw4q8ErfwoMd-PJN-1" vertex="1">
          <mxGeometry x="420" y="140" width="30" height="30" as="geometry" />
        </mxCell>
        <mxCell id="HlsSpw4q8ErfwoMd-PJN-66" value="1" style="text;html=1;resizable=0;autosize=1;align=center;verticalAlign=middle;points=[];fillColor=none;strokeColor=none;rounded=0;" parent="HlsSpw4q8ErfwoMd-PJN-1" vertex="1">
          <mxGeometry x="330" y="400" width="30" height="30" as="geometry" />
        </mxCell>
        <mxCell id="HlsSpw4q8ErfwoMd-PJN-67" value="1..*" style="text;html=1;resizable=0;autosize=1;align=center;verticalAlign=middle;points=[];fillColor=none;strokeColor=none;rounded=0;" parent="HlsSpw4q8ErfwoMd-PJN-1" vertex="1">
          <mxGeometry x="300" y="450" width="40" height="30" as="geometry" />
        </mxCell>
      </root>
    </mxGraphModel>
  </diagram>
  <diagram id="WYeUHidmFiiZNaIuLNMJ" name="Class Diagram">
    <mxGraphModel dx="1153" dy="707" grid="1" gridSize="10" guides="1" tooltips="1" connect="1" arrows="1" fold="1" page="1" pageScale="1" pageWidth="1200" pageHeight="1000" math="0" shadow="0">
      <root>
        <mxCell id="0" />
        <mxCell id="1" parent="0" />
        <mxCell id="-pLYyJbbYM-8aUXMgN09-1" value="Роль" style="swimlane;fontStyle=1;align=center;verticalAlign=top;childLayout=stackLayout;horizontal=1;startSize=26;horizontalStack=0;resizeParent=1;resizeParentMax=0;resizeLast=0;collapsible=1;marginBottom=0;" parent="1" vertex="1">
          <mxGeometry x="120" y="100" width="160" height="170" as="geometry" />
        </mxCell>
        <mxCell id="-pLYyJbbYM-8aUXMgN09-2" value="#role_id: int&#xa;#role_title:&#xa;#role_description&#xa;" style="text;strokeColor=none;fillColor=none;align=left;verticalAlign=top;spacingLeft=4;spacingRight=4;overflow=hidden;rotatable=0;points=[[0,0.5],[1,0.5]];portConstraint=eastwest;" parent="-pLYyJbbYM-8aUXMgN09-1" vertex="1">
          <mxGeometry y="26" width="160" height="54" as="geometry" />
        </mxCell>
        <mxCell id="-pLYyJbbYM-8aUXMgN09-3" value="" style="line;strokeWidth=1;fillColor=none;align=left;verticalAlign=middle;spacingTop=-1;spacingLeft=3;spacingRight=3;rotatable=0;labelPosition=right;points=[];portConstraint=eastwest;strokeColor=inherit;" parent="-pLYyJbbYM-8aUXMgN09-1" vertex="1">
          <mxGeometry y="80" width="160" height="8" as="geometry" />
        </mxCell>
        <mxCell id="-pLYyJbbYM-8aUXMgN09-4" value="+ addRole(): void&#xa;+ editRole(): void&#xa;+ deleteRole(): void&#xa;+ searchRole(): void&#xa;+ assignRole(): void" style="text;strokeColor=none;fillColor=none;align=left;verticalAlign=top;spacingLeft=4;spacingRight=4;overflow=hidden;rotatable=0;points=[[0,0.5],[1,0.5]];portConstraint=eastwest;" parent="-pLYyJbbYM-8aUXMgN09-1" vertex="1">
          <mxGeometry y="88" width="160" height="82" as="geometry" />
        </mxCell>
        <mxCell id="-pLYyJbbYM-8aUXMgN09-5" value="Разрешение" style="swimlane;fontStyle=1;align=center;verticalAlign=top;childLayout=stackLayout;horizontal=1;startSize=26;horizontalStack=0;resizeParent=1;resizeParentMax=0;resizeLast=0;collapsible=1;marginBottom=0;" parent="1" vertex="1">
          <mxGeometry x="390" y="50" width="200" height="170" as="geometry" />
        </mxCell>
        <mxCell id="-pLYyJbbYM-8aUXMgN09-6" value="+ permission_title: string&#xa;+ permission_module: string&#xa;+ permission_description: string&#xa;" style="text;strokeColor=none;fillColor=none;align=left;verticalAlign=top;spacingLeft=4;spacingRight=4;overflow=hidden;rotatable=0;points=[[0,0.5],[1,0.5]];portConstraint=eastwest;" parent="-pLYyJbbYM-8aUXMgN09-5" vertex="1">
          <mxGeometry y="26" width="200" height="54" as="geometry" />
        </mxCell>
        <mxCell id="-pLYyJbbYM-8aUXMgN09-7" value="" style="line;strokeWidth=1;fillColor=none;align=left;verticalAlign=middle;spacingTop=-1;spacingLeft=3;spacingRight=3;rotatable=0;labelPosition=right;points=[];portConstraint=eastwest;strokeColor=inherit;" parent="-pLYyJbbYM-8aUXMgN09-5" vertex="1">
          <mxGeometry y="80" width="200" height="8" as="geometry" />
        </mxCell>
        <mxCell id="-pLYyJbbYM-8aUXMgN09-8" value="+ addPermission(): void&#xa;+ editPermission(): void&#xa;+ deletePermission(): void&#xa;+ searchPermission(): void" style="text;strokeColor=none;fillColor=none;align=left;verticalAlign=top;spacingLeft=4;spacingRight=4;overflow=hidden;rotatable=0;points=[[0,0.5],[1,0.5]];portConstraint=eastwest;" parent="-pLYyJbbYM-8aUXMgN09-5" vertex="1">
          <mxGeometry y="88" width="200" height="82" as="geometry" />
        </mxCell>
        <mxCell id="-pLYyJbbYM-8aUXMgN09-11" value="Управлять" style="endArrow=block;endFill=0;html=1;rounded=0;entryX=0;entryY=0.5;entryDx=0;entryDy=0;endSize=10;" parent="1" source="-pLYyJbbYM-8aUXMgN09-13" edge="1">
          <mxGeometry width="160" relative="1" as="geometry">
            <mxPoint x="310" y="450" as="sourcePoint" />
            <mxPoint x="390" y="100" as="targetPoint" />
            <Array as="points" />
          </mxGeometry>
        </mxCell>
        <mxCell id="-pLYyJbbYM-8aUXMgN09-13" value="Юзер" style="swimlane;fontStyle=1;align=center;verticalAlign=top;childLayout=stackLayout;horizontal=1;startSize=26;horizontalStack=0;resizeParent=1;resizeParentMax=0;resizeLast=0;collapsible=1;marginBottom=0;" parent="1" vertex="1">
          <mxGeometry x="120" y="340" width="190" height="230" as="geometry" />
        </mxCell>
        <mxCell id="-pLYyJbbYM-8aUXMgN09-14" value="+user_id: int&#xa;+user_role_id: int&#xa;+user_name: string&#xa;-user_password: string&#xa;+user_address: int&#xa;+user_phone: string&#xa;-user_forgot_password_code: &#xa;+user_package: object&#xa;" style="text;strokeColor=none;fillColor=none;align=left;verticalAlign=top;spacingLeft=4;spacingRight=4;overflow=hidden;rotatable=0;points=[[0,0.5],[1,0.5]];portConstraint=eastwest;" parent="-pLYyJbbYM-8aUXMgN09-13" vertex="1">
          <mxGeometry y="26" width="190" height="124" as="geometry" />
        </mxCell>
        <mxCell id="-pLYyJbbYM-8aUXMgN09-12" value="" style="endArrow=block;endFill=0;html=1;rounded=0;exitX=1;exitY=0.5;exitDx=0;exitDy=0;entryX=0;entryY=0.5;entryDx=0;entryDy=0;endSize=10;" parent="-pLYyJbbYM-8aUXMgN09-13" target="-pLYyJbbYM-8aUXMgN09-2" edge="1">
          <mxGeometry width="160" relative="1" as="geometry">
            <mxPoint y="60" as="sourcePoint" />
            <mxPoint x="100" y="-70" as="targetPoint" />
            <Array as="points">
              <mxPoint x="-80" y="60" />
              <mxPoint x="-80" y="-187" />
            </Array>
          </mxGeometry>
        </mxCell>
        <mxCell id="-pLYyJbbYM-8aUXMgN09-15" value="" style="line;strokeWidth=1;fillColor=none;align=left;verticalAlign=middle;spacingTop=-1;spacingLeft=3;spacingRight=3;rotatable=0;labelPosition=right;points=[];portConstraint=eastwest;strokeColor=inherit;" parent="-pLYyJbbYM-8aUXMgN09-13" vertex="1">
          <mxGeometry y="150" width="190" height="8" as="geometry" />
        </mxCell>
        <mxCell id="-pLYyJbbYM-8aUXMgN09-16" value="+ addUser(): void&#xa;+ editUser(): void&#xa;+ deleteUser(): void&#xa;+ searchUser(): void" style="text;strokeColor=none;fillColor=none;align=left;verticalAlign=top;spacingLeft=4;spacingRight=4;overflow=hidden;rotatable=0;points=[[0,0.5],[1,0.5]];portConstraint=eastwest;" parent="-pLYyJbbYM-8aUXMgN09-13" vertex="1">
          <mxGeometry y="158" width="190" height="72" as="geometry" />
        </mxCell>
        <mxCell id="NXQbgoOT6J30_Qj2V6Mh-7" value="Разговоры" style="swimlane;fontStyle=1;align=center;verticalAlign=top;childLayout=stackLayout;horizontal=1;startSize=26;horizontalStack=0;resizeParent=1;resizeParentMax=0;resizeLast=0;collapsible=1;marginBottom=0;" parent="1" vertex="1">
          <mxGeometry x="370" y="610" width="210" height="260" as="geometry" />
        </mxCell>
        <mxCell id="NXQbgoOT6J30_Qj2V6Mh-8" value="+conversation_id: int&#xa;+conversation_members: [int]&#xa;-conversation_createdAt: Date&#xa;-conversation_updatedAt: Date" style="text;strokeColor=none;fillColor=none;align=left;verticalAlign=top;spacingLeft=4;spacingRight=4;overflow=hidden;rotatable=0;points=[[0,0.5],[1,0.5]];portConstraint=eastwest;" parent="NXQbgoOT6J30_Qj2V6Mh-7" vertex="1">
          <mxGeometry y="26" width="210" height="144" as="geometry" />
        </mxCell>
        <mxCell id="NXQbgoOT6J30_Qj2V6Mh-9" value="" style="line;strokeWidth=1;fillColor=none;align=left;verticalAlign=middle;spacingTop=-1;spacingLeft=3;spacingRight=3;rotatable=0;labelPosition=right;points=[];portConstraint=eastwest;strokeColor=inherit;" parent="NXQbgoOT6J30_Qj2V6Mh-7" vertex="1">
          <mxGeometry y="170" width="210" height="8" as="geometry" />
        </mxCell>
        <mxCell id="NXQbgoOT6J30_Qj2V6Mh-10" value="+ addConversation(): void&#xa;+ editConvesrsation(): void&#xa;+ deleteConversation(): void&#xa;+ searchconversation(): void" style="text;strokeColor=none;fillColor=none;align=left;verticalAlign=top;spacingLeft=4;spacingRight=4;overflow=hidden;rotatable=0;points=[[0,0.5],[1,0.5]];portConstraint=eastwest;" parent="NXQbgoOT6J30_Qj2V6Mh-7" vertex="1">
          <mxGeometry y="178" width="210" height="82" as="geometry" />
        </mxCell>
        <mxCell id="NXQbgoOT6J30_Qj2V6Mh-12" value="Сообщения" style="swimlane;fontStyle=1;align=center;verticalAlign=top;childLayout=stackLayout;horizontal=1;startSize=26;horizontalStack=0;resizeParent=1;resizeParentMax=0;resizeLast=0;collapsible=1;marginBottom=0;" parent="1" vertex="1">
          <mxGeometry x="70" y="690" width="200" height="220" as="geometry" />
        </mxCell>
        <mxCell id="NXQbgoOT6J30_Qj2V6Mh-13" value="-conversation_id: int&#xa;-sender: string&#xa;-text: string&#xa;-price: Date &#xa;-message_updatedAt: Date" style="text;strokeColor=none;fillColor=none;align=left;verticalAlign=top;spacingLeft=4;spacingRight=4;overflow=hidden;rotatable=0;points=[[0,0.5],[1,0.5]];portConstraint=eastwest;" parent="NXQbgoOT6J30_Qj2V6Mh-12" vertex="1">
          <mxGeometry y="26" width="200" height="104" as="geometry" />
        </mxCell>
        <mxCell id="NXQbgoOT6J30_Qj2V6Mh-14" value="" style="line;strokeWidth=1;fillColor=none;align=left;verticalAlign=middle;spacingTop=-1;spacingLeft=3;spacingRight=3;rotatable=0;labelPosition=right;points=[];portConstraint=eastwest;strokeColor=inherit;" parent="NXQbgoOT6J30_Qj2V6Mh-12" vertex="1">
          <mxGeometry y="130" width="200" height="8" as="geometry" />
        </mxCell>
        <mxCell id="NXQbgoOT6J30_Qj2V6Mh-15" value="+ createMessage(): void" style="text;strokeColor=none;fillColor=none;align=left;verticalAlign=top;spacingLeft=4;spacingRight=4;overflow=hidden;rotatable=0;points=[[0,0.5],[1,0.5]];portConstraint=eastwest;" parent="NXQbgoOT6J30_Qj2V6Mh-12" vertex="1">
          <mxGeometry y="138" width="200" height="82" as="geometry" />
        </mxCell>
        <mxCell id="NXQbgoOT6J30_Qj2V6Mh-17" value="" style="endArrow=none;html=1;edgeStyle=orthogonalEdgeStyle;rounded=0;exitX=1;exitY=0.685;exitDx=0;exitDy=0;exitPerimeter=0;entryX=-0.002;entryY=0.701;entryDx=0;entryDy=0;entryPerimeter=0;" parent="1" source="NXQbgoOT6J30_Qj2V6Mh-13" target="NXQbgoOT6J30_Qj2V6Mh-8" edge="1">
          <mxGeometry relative="1" as="geometry">
            <mxPoint x="300" y="750" as="sourcePoint" />
            <mxPoint x="460" y="750" as="targetPoint" />
          </mxGeometry>
        </mxCell>
        <mxCell id="NXQbgoOT6J30_Qj2V6Mh-18" value="1" style="edgeLabel;resizable=0;html=1;align=left;verticalAlign=bottom;" parent="NXQbgoOT6J30_Qj2V6Mh-17" connectable="0" vertex="1">
          <mxGeometry x="-1" relative="1" as="geometry" />
        </mxCell>
        <mxCell id="NXQbgoOT6J30_Qj2V6Mh-19" value="1" style="edgeLabel;resizable=0;html=1;align=right;verticalAlign=bottom;" parent="NXQbgoOT6J30_Qj2V6Mh-17" connectable="0" vertex="1">
          <mxGeometry x="1" relative="1" as="geometry" />
        </mxCell>
        <mxCell id="NXQbgoOT6J30_Qj2V6Mh-20" value="" style="endArrow=block;endFill=0;html=1;rounded=0;exitX=0.908;exitY=-0.01;exitDx=0;exitDy=0;entryX=0.856;entryY=1.012;entryDx=0;entryDy=0;entryPerimeter=0;exitPerimeter=0;endSize=10;" parent="1" source="NXQbgoOT6J30_Qj2V6Mh-7" target="-pLYyJbbYM-8aUXMgN09-8" edge="1">
          <mxGeometry width="160" relative="1" as="geometry">
            <mxPoint x="360" y="450" as="sourcePoint" />
            <mxPoint x="520" y="450" as="targetPoint" />
          </mxGeometry>
        </mxCell>
        <mxCell id="NXQbgoOT6J30_Qj2V6Mh-21" value="Товары" style="swimlane;fontStyle=1;align=center;verticalAlign=top;childLayout=stackLayout;horizontal=1;startSize=26;horizontalStack=0;resizeParent=1;resizeParentMax=0;resizeLast=0;collapsible=1;marginBottom=0;" parent="1" vertex="1">
          <mxGeometry x="730" y="170" width="200" height="210" as="geometry" />
        </mxCell>
        <mxCell id="NXQbgoOT6J30_Qj2V6Mh-22" value="+product_id: int&#xa;+product_title: date&#xa;+product_price: int&#xa;+product_description: string&#xa;-product_category: string" style="text;strokeColor=none;fillColor=none;align=left;verticalAlign=top;spacingLeft=4;spacingRight=4;overflow=hidden;rotatable=0;points=[[0,0.5],[1,0.5]];portConstraint=eastwest;" parent="NXQbgoOT6J30_Qj2V6Mh-21" vertex="1">
          <mxGeometry y="26" width="200" height="94" as="geometry" />
        </mxCell>
        <mxCell id="NXQbgoOT6J30_Qj2V6Mh-23" value="" style="line;strokeWidth=1;fillColor=none;align=left;verticalAlign=middle;spacingTop=-1;spacingLeft=3;spacingRight=3;rotatable=0;labelPosition=right;points=[];portConstraint=eastwest;strokeColor=inherit;" parent="NXQbgoOT6J30_Qj2V6Mh-21" vertex="1">
          <mxGeometry y="120" width="200" height="8" as="geometry" />
        </mxCell>
        <mxCell id="NXQbgoOT6J30_Qj2V6Mh-24" value="+ addProduct(): void&#xa;+ editProduct(): void&#xa;+ deleteProduct(): void&#xa;+ searchProduct(): void" style="text;strokeColor=none;fillColor=none;align=left;verticalAlign=top;spacingLeft=4;spacingRight=4;overflow=hidden;rotatable=0;points=[[0,0.5],[1,0.5]];portConstraint=eastwest;" parent="NXQbgoOT6J30_Qj2V6Mh-21" vertex="1">
          <mxGeometry y="128" width="200" height="82" as="geometry" />
        </mxCell>
        <mxCell id="NXQbgoOT6J30_Qj2V6Mh-30" value="Задачи" style="swimlane;fontStyle=1;align=center;verticalAlign=top;childLayout=stackLayout;horizontal=1;startSize=26;horizontalStack=0;resizeParent=1;resizeParentMax=0;resizeLast=0;collapsible=1;marginBottom=0;" parent="1" vertex="1">
          <mxGeometry x="600" y="690" width="200" height="220" as="geometry" />
        </mxCell>
        <mxCell id="NXQbgoOT6J30_Qj2V6Mh-31" value="-gym_name: string" style="text;strokeColor=none;fillColor=none;align=left;verticalAlign=top;spacingLeft=4;spacingRight=4;overflow=hidden;rotatable=0;points=[[0,0.5],[1,0.5]];portConstraint=eastwest;" parent="NXQbgoOT6J30_Qj2V6Mh-30" vertex="1">
          <mxGeometry y="26" width="200" height="104" as="geometry" />
        </mxCell>
        <mxCell id="NXQbgoOT6J30_Qj2V6Mh-32" value="" style="line;strokeWidth=1;fillColor=none;align=left;verticalAlign=middle;spacingTop=-1;spacingLeft=3;spacingRight=3;rotatable=0;labelPosition=right;points=[];portConstraint=eastwest;strokeColor=inherit;" parent="NXQbgoOT6J30_Qj2V6Mh-30" vertex="1">
          <mxGeometry y="130" width="200" height="8" as="geometry" />
        </mxCell>
        <mxCell id="NXQbgoOT6J30_Qj2V6Mh-33" value="+ addTask(): void&#xa;+ editTask(): void&#xa;+ deleteTask(): void&#xa;+ acceptTask(): void" style="text;strokeColor=none;fillColor=none;align=left;verticalAlign=top;spacingLeft=4;spacingRight=4;overflow=hidden;rotatable=0;points=[[0,0.5],[1,0.5]];portConstraint=eastwest;" parent="NXQbgoOT6J30_Qj2V6Mh-30" vertex="1">
          <mxGeometry y="138" width="200" height="82" as="geometry" />
        </mxCell>
        <mxCell id="NXQbgoOT6J30_Qj2V6Mh-35" value="Оплата" style="swimlane;fontStyle=1;align=center;verticalAlign=top;childLayout=stackLayout;horizontal=1;startSize=26;horizontalStack=0;resizeParent=1;resizeParentMax=0;resizeLast=0;collapsible=1;marginBottom=0;" parent="1" vertex="1">
          <mxGeometry x="355" y="340" width="180" height="210" as="geometry" />
        </mxCell>
        <mxCell id="NXQbgoOT6J30_Qj2V6Mh-36" value="-payment_id: int&#xa;-payment_customer_id: int&#xa;-payment_account: string&#xa;-payment_description: string&#xa;-payment_status: string&#xa;-payment_date: date" style="text;strokeColor=none;fillColor=none;align=left;verticalAlign=top;spacingLeft=4;spacingRight=4;overflow=hidden;rotatable=0;points=[[0,0.5],[1,0.5]];portConstraint=eastwest;" parent="NXQbgoOT6J30_Qj2V6Mh-35" vertex="1">
          <mxGeometry y="26" width="180" height="94" as="geometry" />
        </mxCell>
        <mxCell id="NXQbgoOT6J30_Qj2V6Mh-37" value="" style="line;strokeWidth=1;fillColor=none;align=left;verticalAlign=middle;spacingTop=-1;spacingLeft=3;spacingRight=3;rotatable=0;labelPosition=right;points=[];portConstraint=eastwest;strokeColor=inherit;" parent="NXQbgoOT6J30_Qj2V6Mh-35" vertex="1">
          <mxGeometry y="120" width="180" height="8" as="geometry" />
        </mxCell>
        <mxCell id="NXQbgoOT6J30_Qj2V6Mh-38" value="+ addPayment(): void&#xa;+ editPayment(): void&#xa;+ deletePayment(): void&#xa;+ searchPayment(): void" style="text;strokeColor=none;fillColor=none;align=left;verticalAlign=top;spacingLeft=4;spacingRight=4;overflow=hidden;rotatable=0;points=[[0,0.5],[1,0.5]];portConstraint=eastwest;" parent="NXQbgoOT6J30_Qj2V6Mh-35" vertex="1">
          <mxGeometry y="128" width="180" height="82" as="geometry" />
        </mxCell>
        <mxCell id="NXQbgoOT6J30_Qj2V6Mh-39" value="" style="endArrow=block;endFill=0;html=1;rounded=0;entryX=1;entryY=0.5;entryDx=0;entryDy=0;exitX=0;exitY=0.681;exitDx=0;exitDy=0;exitPerimeter=0;endSize=10;" parent="1" source="NXQbgoOT6J30_Qj2V6Mh-22" target="-pLYyJbbYM-8aUXMgN09-6" edge="1">
          <mxGeometry width="160" relative="1" as="geometry">
            <mxPoint x="710" y="200" as="sourcePoint" />
            <mxPoint x="640" y="350" as="targetPoint" />
          </mxGeometry>
        </mxCell>
        <mxCell id="NXQbgoOT6J30_Qj2V6Mh-40" value="Категория" style="swimlane;fontStyle=1;align=center;verticalAlign=top;childLayout=stackLayout;horizontal=1;startSize=26;horizontalStack=0;resizeParent=1;resizeParentMax=0;resizeLast=0;collapsible=1;marginBottom=0;" parent="1" vertex="1">
          <mxGeometry x="980" y="550" width="200" height="220" as="geometry" />
        </mxCell>
        <mxCell id="NXQbgoOT6J30_Qj2V6Mh-41" value="+category_id: int&#xa;+conversation_name: [int]&#xa;-category_createdAt: Date&#xa;-category_updatedAt: Date" style="text;strokeColor=none;fillColor=none;align=left;verticalAlign=top;spacingLeft=4;spacingRight=4;overflow=hidden;rotatable=0;points=[[0,0.5],[1,0.5]];portConstraint=eastwest;" parent="NXQbgoOT6J30_Qj2V6Mh-40" vertex="1">
          <mxGeometry y="26" width="200" height="104" as="geometry" />
        </mxCell>
        <mxCell id="NXQbgoOT6J30_Qj2V6Mh-42" value="" style="line;strokeWidth=1;fillColor=none;align=left;verticalAlign=middle;spacingTop=-1;spacingLeft=3;spacingRight=3;rotatable=0;labelPosition=right;points=[];portConstraint=eastwest;strokeColor=inherit;" parent="NXQbgoOT6J30_Qj2V6Mh-40" vertex="1">
          <mxGeometry y="130" width="200" height="8" as="geometry" />
        </mxCell>
        <mxCell id="NXQbgoOT6J30_Qj2V6Mh-43" value="+ addCategory(): void&#xa;+ editCategory(): void&#xa;+ deleteCategory(): void&#xa;+ searchCategory(): void" style="text;strokeColor=none;fillColor=none;align=left;verticalAlign=top;spacingLeft=4;spacingRight=4;overflow=hidden;rotatable=0;points=[[0,0.5],[1,0.5]];portConstraint=eastwest;" parent="NXQbgoOT6J30_Qj2V6Mh-40" vertex="1">
          <mxGeometry y="138" width="200" height="82" as="geometry" />
        </mxCell>
        <mxCell id="NXQbgoOT6J30_Qj2V6Mh-46" value="1" style="text;html=1;resizable=0;autosize=1;align=center;verticalAlign=middle;points=[];fillColor=none;strokeColor=none;rounded=0;" parent="1" vertex="1">
          <mxGeometry x="950" y="570" width="30" height="30" as="geometry" />
        </mxCell>
        <mxCell id="NXQbgoOT6J30_Qj2V6Mh-49" value="1..*" style="text;html=1;resizable=0;autosize=1;align=center;verticalAlign=middle;points=[];fillColor=none;strokeColor=none;rounded=0;" parent="1" vertex="1">
          <mxGeometry x="930" y="250" width="40" height="30" as="geometry" />
        </mxCell>
        <mxCell id="NXQbgoOT6J30_Qj2V6Mh-50" value="0..*" style="text;html=1;resizable=0;autosize=1;align=center;verticalAlign=middle;points=[];fillColor=none;strokeColor=none;rounded=0;" parent="1" vertex="1">
          <mxGeometry x="745" y="660" width="40" height="30" as="geometry" />
        </mxCell>
        <mxCell id="NXQbgoOT6J30_Qj2V6Mh-52" value="1" style="text;html=1;resizable=0;autosize=1;align=center;verticalAlign=middle;points=[];fillColor=none;strokeColor=none;rounded=0;" parent="1" vertex="1">
          <mxGeometry x="250" y="310" width="30" height="30" as="geometry" />
        </mxCell>
        <mxCell id="NXQbgoOT6J30_Qj2V6Mh-53" value="0..*" style="text;html=1;resizable=0;autosize=1;align=center;verticalAlign=middle;points=[];fillColor=none;strokeColor=none;rounded=0;" parent="1" vertex="1">
          <mxGeometry x="350" y="90" width="40" height="30" as="geometry" />
        </mxCell>
        <mxCell id="NXQbgoOT6J30_Qj2V6Mh-54" value="1" style="text;html=1;resizable=0;autosize=1;align=center;verticalAlign=middle;points=[];fillColor=none;strokeColor=none;rounded=0;" parent="1" vertex="1">
          <mxGeometry x="90" y="400" width="30" height="30" as="geometry" />
        </mxCell>
        <mxCell id="NXQbgoOT6J30_Qj2V6Mh-55" value="1" style="text;html=1;resizable=0;autosize=1;align=center;verticalAlign=middle;points=[];fillColor=none;strokeColor=none;rounded=0;" parent="1" vertex="1">
          <mxGeometry x="90" y="160" width="30" height="30" as="geometry" />
        </mxCell>
        <mxCell id="NXQbgoOT6J30_Qj2V6Mh-56" value="1" style="text;html=1;resizable=0;autosize=1;align=center;verticalAlign=middle;points=[];fillColor=none;strokeColor=none;rounded=0;" parent="1" vertex="1">
          <mxGeometry x="310" y="560" width="30" height="30" as="geometry" />
        </mxCell>
        <mxCell id="NXQbgoOT6J30_Qj2V6Mh-57" value="1" style="text;html=1;resizable=0;autosize=1;align=center;verticalAlign=middle;points=[];fillColor=none;strokeColor=none;rounded=0;" parent="1" vertex="1">
          <mxGeometry x="430" y="310" width="30" height="30" as="geometry" />
        </mxCell>
        <mxCell id="NXQbgoOT6J30_Qj2V6Mh-58" value="0..*" style="text;html=1;resizable=0;autosize=1;align=center;verticalAlign=middle;points=[];fillColor=none;strokeColor=none;rounded=0;" parent="1" vertex="1">
          <mxGeometry x="560" y="230" width="40" height="30" as="geometry" />
        </mxCell>
        <mxCell id="NXQbgoOT6J30_Qj2V6Mh-59" value="1" style="text;html=1;resizable=0;autosize=1;align=center;verticalAlign=middle;points=[];fillColor=none;strokeColor=none;rounded=0;" parent="1" vertex="1">
          <mxGeometry x="690" y="250" width="30" height="30" as="geometry" />
        </mxCell>
        <mxCell id="NXQbgoOT6J30_Qj2V6Mh-60" value="1" style="text;html=1;resizable=0;autosize=1;align=center;verticalAlign=middle;points=[];fillColor=none;strokeColor=none;rounded=0;" parent="1" vertex="1">
          <mxGeometry x="580" y="110" width="30" height="30" as="geometry" />
        </mxCell>
        <mxCell id="NXQbgoOT6J30_Qj2V6Mh-63" value="" style="endArrow=diamondThin;endFill=1;endSize=20;html=1;rounded=0;entryX=0.996;entryY=0.682;entryDx=0;entryDy=0;entryPerimeter=0;exitX=0.003;exitY=0.585;exitDx=0;exitDy=0;exitPerimeter=0;" parent="1" source="NXQbgoOT6J30_Qj2V6Mh-36" target="-pLYyJbbYM-8aUXMgN09-14" edge="1">
          <mxGeometry width="160" relative="1" as="geometry">
            <mxPoint x="340" y="430" as="sourcePoint" />
            <mxPoint x="640" y="460" as="targetPoint" />
          </mxGeometry>
        </mxCell>
        <mxCell id="NXQbgoOT6J30_Qj2V6Mh-65" value="" style="endArrow=block;endFill=0;html=1;rounded=0;entryX=-0.037;entryY=0.106;entryDx=0;entryDy=0;entryPerimeter=0;endSize=10;" parent="1" target="NXQbgoOT6J30_Qj2V6Mh-66" edge="1">
          <mxGeometry width="160" relative="1" as="geometry">
            <mxPoint x="430" y="340" as="sourcePoint" />
            <mxPoint x="470" y="150" as="targetPoint" />
          </mxGeometry>
        </mxCell>
        <mxCell id="NXQbgoOT6J30_Qj2V6Mh-66" value="1" style="text;html=1;resizable=0;autosize=1;align=center;verticalAlign=middle;points=[];fillColor=none;strokeColor=none;rounded=0;" parent="1" vertex="1">
          <mxGeometry x="430" y="220" width="30" height="30" as="geometry" />
        </mxCell>
        <mxCell id="QWNaYnXoP8WtqLhafoQ0-1" value="1" style="text;html=1;resizable=0;autosize=1;align=center;verticalAlign=middle;points=[];fillColor=none;strokeColor=none;rounded=0;" parent="1" vertex="1">
          <mxGeometry x="330" y="400" width="30" height="30" as="geometry" />
        </mxCell>
        <mxCell id="QWNaYnXoP8WtqLhafoQ0-2" value="1..*" style="text;html=1;resizable=0;autosize=1;align=center;verticalAlign=middle;points=[];fillColor=none;strokeColor=none;rounded=0;" parent="1" vertex="1">
          <mxGeometry x="300" y="450" width="40" height="30" as="geometry" />
        </mxCell>
        <mxCell id="NXQbgoOT6J30_Qj2V6Mh-61" value="" style="endArrow=diamondThin;endFill=0;html=1;rounded=0;exitX=1.027;exitY=0.856;exitDx=0;exitDy=0;endSize=20;entryX=0.75;entryY=0;entryDx=0;entryDy=0;exitPerimeter=0;" parent="1" source="-pLYyJbbYM-8aUXMgN09-16" target="NXQbgoOT6J30_Qj2V6Mh-30" edge="1">
          <mxGeometry width="160" relative="1" as="geometry">
            <mxPoint x="640" y="600" as="sourcePoint" />
            <mxPoint x="480" y="550" as="targetPoint" />
            <Array as="points">
              <mxPoint x="750" y="560" />
            </Array>
          </mxGeometry>
        </mxCell>
        <mxCell id="VqzYQKpxxbSer7d1mUed-1" value="Управлять" style="edgeLabel;html=1;align=center;verticalAlign=middle;resizable=0;points=[];" vertex="1" connectable="0" parent="NXQbgoOT6J30_Qj2V6Mh-61">
          <mxGeometry x="0.0612" y="-2" relative="1" as="geometry">
            <mxPoint as="offset" />
          </mxGeometry>
        </mxCell>
        <mxCell id="NXQbgoOT6J30_Qj2V6Mh-44" value="" style="endArrow=block;endFill=0;html=1;rounded=0;exitX=1;exitY=0.5;exitDx=0;exitDy=0;endSize=10;entryX=0;entryY=0.5;entryDx=0;entryDy=0;" parent="1" source="NXQbgoOT6J30_Qj2V6Mh-22" target="NXQbgoOT6J30_Qj2V6Mh-41" edge="1">
          <mxGeometry width="160" relative="1" as="geometry">
            <mxPoint x="940" y="320" as="sourcePoint" />
            <mxPoint x="470" y="650" as="targetPoint" />
          </mxGeometry>
        </mxCell>
        <mxCell id="VqzYQKpxxbSer7d1mUed-2" value="" style="endArrow=block;endFill=0;html=1;rounded=0;entryX=1;entryY=0.5;entryDx=0;entryDy=0;exitX=-0.018;exitY=0.925;exitDx=0;exitDy=0;exitPerimeter=0;endSize=10;" edge="1" parent="1" source="NXQbgoOT6J30_Qj2V6Mh-41">
          <mxGeometry width="160" relative="1" as="geometry">
            <mxPoint x="720" y="447" as="sourcePoint" />
            <mxPoint x="580" y="220" as="targetPoint" />
            <Array as="points">
              <mxPoint x="760" y="440" />
            </Array>
          </mxGeometry>
        </mxCell>
      </root>
    </mxGraphModel>
  </diagram>
  <diagram id="uwozWKPzrJn6WaG8PIqu" name="Use-case Diagram">
    <mxGraphModel dx="1050" dy="619" grid="1" gridSize="10" guides="1" tooltips="1" connect="1" arrows="1" fold="1" page="1" pageScale="1" pageWidth="1200" pageHeight="1000" math="0" shadow="0">
      <root>
        <mxCell id="0" />
        <mxCell id="1" parent="0" />
        <mxCell id="u2ZrrxIaHKpuG_xrhYa_-1" value="Системный Администратор" style="shape=umlActor;verticalLabelPosition=bottom;verticalAlign=top;html=1;fontSize=14;" parent="1" vertex="1">
          <mxGeometry x="90" y="250" width="30" height="60" as="geometry" />
        </mxCell>
        <mxCell id="u2ZrrxIaHKpuG_xrhYa_-2" value="&lt;font style=&quot;font-size: 14px;&quot;&gt;Системный Пользователь&lt;/font&gt;" style="shape=umlActor;verticalLabelPosition=bottom;verticalAlign=top;html=1;" parent="1" vertex="1">
          <mxGeometry x="90" y="570" width="30" height="60" as="geometry" />
        </mxCell>
        <mxCell id="u2ZrrxIaHKpuG_xrhYa_-8" value="&lt;font style=&quot;font-size: 14px;&quot;&gt;Gym System Management&lt;/font&gt;" style="shape=umlFrame;whiteSpace=wrap;html=1;width=110;height=40;" parent="1" vertex="1">
          <mxGeometry x="230" y="80" width="800" height="770" as="geometry" />
        </mxCell>
        <mxCell id="u2ZrrxIaHKpuG_xrhYa_-9" value="Тренер" style="shape=umlActor;verticalLabelPosition=bottom;verticalAlign=top;html=1;fontSize=14;" parent="1" vertex="1">
          <mxGeometry x="1140" y="240" width="30" height="60" as="geometry" />
        </mxCell>
        <mxCell id="u2ZrrxIaHKpuG_xrhYa_-10" value="Члены" style="shape=umlActor;verticalLabelPosition=bottom;verticalAlign=top;html=1;fontSize=14;" parent="1" vertex="1">
          <mxGeometry x="1150" y="510" width="30" height="60" as="geometry" />
        </mxCell>
        <mxCell id="u2ZrrxIaHKpuG_xrhYa_-16" value="управлять пользователями и всеми функциями приложения" style="ellipse;whiteSpace=wrap;html=1;fontSize=14;" parent="1" vertex="1">
          <mxGeometry x="280" y="160" width="250" height="50" as="geometry" />
        </mxCell>
        <mxCell id="u2ZrrxIaHKpuG_xrhYa_-17" value="управлять тренажерами и продуктами" style="ellipse;whiteSpace=wrap;html=1;fontSize=14;" parent="1" vertex="1">
          <mxGeometry x="280" y="220" width="260" height="50" as="geometry" />
        </mxCell>
        <mxCell id="u2ZrrxIaHKpuG_xrhYa_-18" value="Управлять статьями на тему фитнеса" style="ellipse;whiteSpace=wrap;html=1;fontSize=14;" parent="1" vertex="1">
          <mxGeometry x="290" y="280" width="260" height="50" as="geometry" />
        </mxCell>
        <mxCell id="u2ZrrxIaHKpuG_xrhYa_-19" value="вход и выход из системы" style="ellipse;whiteSpace=wrap;html=1;fontSize=14;" parent="1" vertex="1">
          <mxGeometry x="490" y="340" width="260" height="50" as="geometry" />
        </mxCell>
        <mxCell id="u2ZrrxIaHKpuG_xrhYa_-20" value="обновить личную информацию" style="ellipse;whiteSpace=wrap;html=1;fontSize=14;" parent="1" vertex="1">
          <mxGeometry x="490" y="400" width="260" height="50" as="geometry" />
        </mxCell>
        <mxCell id="u2ZrrxIaHKpuG_xrhYa_-21" value="проводить платежи по системе" style="ellipse;whiteSpace=wrap;html=1;fontSize=14;" parent="1" vertex="1">
          <mxGeometry x="490" y="460" width="260" height="50" as="geometry" />
        </mxCell>
        <mxCell id="u2ZrrxIaHKpuG_xrhYa_-22" value="управлять пакетом" style="ellipse;whiteSpace=wrap;html=1;fontSize=14;" parent="1" vertex="1">
          <mxGeometry x="280" y="550" width="260" height="50" as="geometry" />
        </mxCell>
        <mxCell id="u2ZrrxIaHKpuG_xrhYa_-23" value="управлять участниками в классе физкультуры" style="ellipse;whiteSpace=wrap;html=1;fontSize=14;" parent="1" vertex="1">
          <mxGeometry x="280" y="610" width="260" height="50" as="geometry" />
        </mxCell>
        <mxCell id="u2ZrrxIaHKpuG_xrhYa_-24" value="управлять всеми сменами и графиками тренажерного зала" style="ellipse;whiteSpace=wrap;html=1;fontSize=14;" parent="1" vertex="1">
          <mxGeometry x="280" y="680" width="260" height="50" as="geometry" />
        </mxCell>
        <mxCell id="u2ZrrxIaHKpuG_xrhYa_-25" value="создать расписание" style="ellipse;whiteSpace=wrap;html=1;fontSize=14;" parent="1" vertex="1">
          <mxGeometry x="750" y="160" width="260" height="50" as="geometry" />
        </mxCell>
        <mxCell id="u2ZrrxIaHKpuG_xrhYa_-26" value="создать график диеты" style="ellipse;whiteSpace=wrap;html=1;fontSize=14;" parent="1" vertex="1">
          <mxGeometry x="750" y="220" width="260" height="50" as="geometry" />
        </mxCell>
        <mxCell id="u2ZrrxIaHKpuG_xrhYa_-27" value="сделать отчет для настройки планов" style="ellipse;whiteSpace=wrap;html=1;fontSize=14;" parent="1" vertex="1">
          <mxGeometry x="750" y="280" width="260" height="50" as="geometry" />
        </mxCell>
        <mxCell id="u2ZrrxIaHKpuG_xrhYa_-28" value="найти и записаться на физкультуру" style="ellipse;whiteSpace=wrap;html=1;fontSize=14;" parent="1" vertex="1">
          <mxGeometry x="750" y="550" width="260" height="50" as="geometry" />
        </mxCell>
        <mxCell id="u2ZrrxIaHKpuG_xrhYa_-29" value="подать заявку на членство" style="ellipse;whiteSpace=wrap;html=1;fontSize=14;" parent="1" vertex="1">
          <mxGeometry x="750" y="610" width="260" height="50" as="geometry" />
        </mxCell>
        <mxCell id="u2ZrrxIaHKpuG_xrhYa_-30" value="посмотреть собственный план тренировок" style="ellipse;whiteSpace=wrap;html=1;fontSize=14;" parent="1" vertex="1">
          <mxGeometry x="760" y="670" width="260" height="50" as="geometry" />
        </mxCell>
        <mxCell id="u2ZrrxIaHKpuG_xrhYa_-31" value="&amp;lt;&amp;lt;include&amp;gt;&amp;gt;" style="endArrow=open;endSize=12;dashed=1;html=1;rounded=0;fontSize=14;entryX=0;entryY=0.5;entryDx=0;entryDy=0;" parent="1" target="u2ZrrxIaHKpuG_xrhYa_-25" edge="1">
          <mxGeometry x="-0.0909" width="160" relative="1" as="geometry">
            <mxPoint x="530" y="184.5" as="sourcePoint" />
            <mxPoint x="690" y="184.5" as="targetPoint" />
            <mxPoint as="offset" />
          </mxGeometry>
        </mxCell>
        <mxCell id="u2ZrrxIaHKpuG_xrhYa_-32" value="&amp;lt;&amp;lt;include&amp;gt;&amp;gt;" style="endArrow=open;endSize=12;dashed=1;html=1;rounded=0;fontSize=14;entryX=0;entryY=0.5;entryDx=0;entryDy=0;exitX=0.987;exitY=0.66;exitDx=0;exitDy=0;exitPerimeter=0;" parent="1" source="u2ZrrxIaHKpuG_xrhYa_-16" target="u2ZrrxIaHKpuG_xrhYa_-26" edge="1">
          <mxGeometry x="-0.0909" width="160" relative="1" as="geometry">
            <mxPoint x="540" y="194.5" as="sourcePoint" />
            <mxPoint x="760" y="195" as="targetPoint" />
            <mxPoint as="offset" />
          </mxGeometry>
        </mxCell>
        <mxCell id="u2ZrrxIaHKpuG_xrhYa_-33" value="&amp;lt;&amp;lt;include&amp;gt;&amp;gt;" style="endArrow=open;endSize=12;dashed=1;html=1;rounded=0;fontSize=14;entryX=0;entryY=0.5;entryDx=0;entryDy=0;exitX=0.962;exitY=0.756;exitDx=0;exitDy=0;exitPerimeter=0;" parent="1" source="u2ZrrxIaHKpuG_xrhYa_-16" target="u2ZrrxIaHKpuG_xrhYa_-27" edge="1">
          <mxGeometry x="-0.0909" width="160" relative="1" as="geometry">
            <mxPoint x="550" y="204.5" as="sourcePoint" />
            <mxPoint x="770" y="205" as="targetPoint" />
            <mxPoint as="offset" />
          </mxGeometry>
        </mxCell>
        <mxCell id="pgdrck2Fgos7qRkNzWgf-1" value="" style="endArrow=none;endFill=0;endSize=12;html=1;rounded=0;fontSize=13;entryX=0;entryY=0.5;entryDx=0;entryDy=0;" parent="1" target="u2ZrrxIaHKpuG_xrhYa_-16" edge="1">
          <mxGeometry width="160" relative="1" as="geometry">
            <mxPoint x="120" y="280" as="sourcePoint" />
            <mxPoint x="280" y="220" as="targetPoint" />
          </mxGeometry>
        </mxCell>
        <mxCell id="pgdrck2Fgos7qRkNzWgf-2" value="" style="endArrow=none;endFill=0;endSize=12;html=1;rounded=0;fontSize=13;entryX=0;entryY=0.5;entryDx=0;entryDy=0;" parent="1" target="u2ZrrxIaHKpuG_xrhYa_-17" edge="1">
          <mxGeometry width="160" relative="1" as="geometry">
            <mxPoint x="120" y="280" as="sourcePoint" />
            <mxPoint x="290" y="195" as="targetPoint" />
          </mxGeometry>
        </mxCell>
        <mxCell id="pgdrck2Fgos7qRkNzWgf-3" value="extend" style="html=1;verticalAlign=bottom;endArrow=open;dashed=1;endSize=8;rounded=0;fontSize=13;exitX=0.057;exitY=0.765;exitDx=0;exitDy=0;entryX=0.945;entryY=0.76;entryDx=0;entryDy=0;entryPerimeter=0;exitPerimeter=0;" parent="1" source="u2ZrrxIaHKpuG_xrhYa_-27" target="u2ZrrxIaHKpuG_xrhYa_-17" edge="1">
          <mxGeometry relative="1" as="geometry">
            <mxPoint x="650" y="400" as="sourcePoint" />
            <mxPoint x="570" y="400" as="targetPoint" />
          </mxGeometry>
        </mxCell>
        <mxCell id="pgdrck2Fgos7qRkNzWgf-4" value="" style="endArrow=none;endFill=0;endSize=12;html=1;rounded=0;fontSize=13;entryX=0;entryY=0.5;entryDx=0;entryDy=0;" parent="1" target="u2ZrrxIaHKpuG_xrhYa_-18" edge="1">
          <mxGeometry width="160" relative="1" as="geometry">
            <mxPoint x="120" y="280" as="sourcePoint" />
            <mxPoint x="290" y="255" as="targetPoint" />
          </mxGeometry>
        </mxCell>
        <mxCell id="pgdrck2Fgos7qRkNzWgf-5" value="" style="endArrow=none;endFill=0;endSize=12;html=1;rounded=0;fontSize=13;entryX=1;entryY=0.5;entryDx=0;entryDy=0;" parent="1" target="u2ZrrxIaHKpuG_xrhYa_-25" edge="1">
          <mxGeometry width="160" relative="1" as="geometry">
            <mxPoint x="1130" y="320" as="sourcePoint" />
            <mxPoint x="300" y="265" as="targetPoint" />
          </mxGeometry>
        </mxCell>
        <mxCell id="pgdrck2Fgos7qRkNzWgf-6" value="" style="endArrow=none;endFill=0;endSize=12;html=1;rounded=0;fontSize=13;entryX=1;entryY=0.5;entryDx=0;entryDy=0;" parent="1" target="u2ZrrxIaHKpuG_xrhYa_-26" edge="1">
          <mxGeometry width="160" relative="1" as="geometry">
            <mxPoint x="1130" y="320" as="sourcePoint" />
            <mxPoint x="1000" y="190" as="targetPoint" />
          </mxGeometry>
        </mxCell>
        <mxCell id="pgdrck2Fgos7qRkNzWgf-8" value="" style="endArrow=none;endFill=0;endSize=12;html=1;rounded=0;fontSize=13;entryX=1;entryY=0.5;entryDx=0;entryDy=0;" parent="1" target="u2ZrrxIaHKpuG_xrhYa_-27" edge="1">
          <mxGeometry width="160" relative="1" as="geometry">
            <mxPoint x="1130" y="320" as="sourcePoint" />
            <mxPoint x="330" y="295" as="targetPoint" />
          </mxGeometry>
        </mxCell>
        <mxCell id="pgdrck2Fgos7qRkNzWgf-9" value="" style="endArrow=none;endFill=0;endSize=12;html=1;rounded=0;fontSize=13;entryX=0;entryY=0.5;entryDx=0;entryDy=0;" parent="1" target="u2ZrrxIaHKpuG_xrhYa_-19" edge="1">
          <mxGeometry width="160" relative="1" as="geometry">
            <mxPoint x="120" y="280" as="sourcePoint" />
            <mxPoint x="290" y="315" as="targetPoint" />
          </mxGeometry>
        </mxCell>
        <mxCell id="pgdrck2Fgos7qRkNzWgf-10" value="" style="endArrow=none;endFill=0;endSize=12;html=1;rounded=0;fontSize=13;entryX=0;entryY=0.5;entryDx=0;entryDy=0;" parent="1" target="u2ZrrxIaHKpuG_xrhYa_-20" edge="1">
          <mxGeometry width="160" relative="1" as="geometry">
            <mxPoint x="120" y="280" as="sourcePoint" />
            <mxPoint x="500" y="375" as="targetPoint" />
          </mxGeometry>
        </mxCell>
        <mxCell id="pgdrck2Fgos7qRkNzWgf-11" value="" style="endArrow=none;endFill=0;endSize=12;html=1;rounded=0;fontSize=13;entryX=0;entryY=0.5;entryDx=0;entryDy=0;" parent="1" target="u2ZrrxIaHKpuG_xrhYa_-21" edge="1">
          <mxGeometry width="160" relative="1" as="geometry">
            <mxPoint x="120" y="280" as="sourcePoint" />
            <mxPoint x="510" y="385" as="targetPoint" />
          </mxGeometry>
        </mxCell>
        <mxCell id="pgdrck2Fgos7qRkNzWgf-16" value="" style="endArrow=none;endFill=0;endSize=12;html=1;rounded=0;fontSize=13;entryX=0;entryY=0.5;entryDx=0;entryDy=0;" parent="1" target="u2ZrrxIaHKpuG_xrhYa_-22" edge="1">
          <mxGeometry width="160" relative="1" as="geometry">
            <mxPoint x="140" y="600" as="sourcePoint" />
            <mxPoint x="530" y="525" as="targetPoint" />
          </mxGeometry>
        </mxCell>
        <mxCell id="pgdrck2Fgos7qRkNzWgf-17" value="" style="endArrow=none;endFill=0;endSize=12;html=1;rounded=0;fontSize=13;entryX=0;entryY=0.5;entryDx=0;entryDy=0;" parent="1" target="u2ZrrxIaHKpuG_xrhYa_-23" edge="1">
          <mxGeometry width="160" relative="1" as="geometry">
            <mxPoint x="140" y="600" as="sourcePoint" />
            <mxPoint x="540" y="535" as="targetPoint" />
          </mxGeometry>
        </mxCell>
        <mxCell id="pgdrck2Fgos7qRkNzWgf-18" value="" style="endArrow=none;endFill=0;endSize=12;html=1;rounded=0;fontSize=13;entryX=0;entryY=0.5;entryDx=0;entryDy=0;" parent="1" target="u2ZrrxIaHKpuG_xrhYa_-24" edge="1">
          <mxGeometry width="160" relative="1" as="geometry">
            <mxPoint x="140" y="600" as="sourcePoint" />
            <mxPoint x="550" y="545" as="targetPoint" />
          </mxGeometry>
        </mxCell>
        <mxCell id="pgdrck2Fgos7qRkNzWgf-26" value="" style="endArrow=none;endFill=0;endSize=12;html=1;rounded=0;fontSize=13;entryX=1;entryY=0.5;entryDx=0;entryDy=0;" parent="1" target="u2ZrrxIaHKpuG_xrhYa_-19" edge="1">
          <mxGeometry width="160" relative="1" as="geometry">
            <mxPoint x="1130" y="320" as="sourcePoint" />
            <mxPoint x="670" y="520" as="targetPoint" />
          </mxGeometry>
        </mxCell>
        <mxCell id="pgdrck2Fgos7qRkNzWgf-27" value="" style="endArrow=none;endFill=0;endSize=12;html=1;rounded=0;fontSize=13;entryX=1;entryY=0.5;entryDx=0;entryDy=0;" parent="1" target="u2ZrrxIaHKpuG_xrhYa_-20" edge="1">
          <mxGeometry width="160" relative="1" as="geometry">
            <mxPoint x="1130" y="320" as="sourcePoint" />
            <mxPoint x="760" y="375" as="targetPoint" />
          </mxGeometry>
        </mxCell>
        <mxCell id="pgdrck2Fgos7qRkNzWgf-28" value="" style="endArrow=none;endFill=0;endSize=12;html=1;rounded=0;fontSize=13;entryX=1;entryY=0.5;entryDx=0;entryDy=0;" parent="1" target="u2ZrrxIaHKpuG_xrhYa_-21" edge="1">
          <mxGeometry width="160" relative="1" as="geometry">
            <mxPoint x="1130" y="320" as="sourcePoint" />
            <mxPoint x="770" y="385" as="targetPoint" />
          </mxGeometry>
        </mxCell>
        <mxCell id="pgdrck2Fgos7qRkNzWgf-31" value="" style="endArrow=none;endFill=0;endSize=12;html=1;rounded=0;fontSize=13;entryX=1;entryY=0.5;entryDx=0;entryDy=0;" parent="1" target="u2ZrrxIaHKpuG_xrhYa_-19" edge="1">
          <mxGeometry width="160" relative="1" as="geometry">
            <mxPoint x="1130" y="550" as="sourcePoint" />
            <mxPoint x="760" y="495" as="targetPoint" />
          </mxGeometry>
        </mxCell>
        <mxCell id="pgdrck2Fgos7qRkNzWgf-32" value="" style="endArrow=none;endFill=0;endSize=12;html=1;rounded=0;fontSize=13;entryX=1;entryY=0.5;entryDx=0;entryDy=0;" parent="1" target="u2ZrrxIaHKpuG_xrhYa_-20" edge="1">
          <mxGeometry width="160" relative="1" as="geometry">
            <mxPoint x="1130" y="550" as="sourcePoint" />
            <mxPoint x="750" y="430" as="targetPoint" />
          </mxGeometry>
        </mxCell>
        <mxCell id="pgdrck2Fgos7qRkNzWgf-33" value="" style="endArrow=none;endFill=0;endSize=12;html=1;rounded=0;fontSize=13;entryX=1;entryY=0.5;entryDx=0;entryDy=0;" parent="1" target="u2ZrrxIaHKpuG_xrhYa_-21" edge="1">
          <mxGeometry width="160" relative="1" as="geometry">
            <mxPoint x="1130" y="550" as="sourcePoint" />
            <mxPoint x="760" y="490" as="targetPoint" />
          </mxGeometry>
        </mxCell>
        <mxCell id="pgdrck2Fgos7qRkNzWgf-34" value="" style="endArrow=none;endFill=0;endSize=12;html=1;rounded=0;fontSize=13;entryX=1;entryY=0.5;entryDx=0;entryDy=0;" parent="1" target="u2ZrrxIaHKpuG_xrhYa_-28" edge="1">
          <mxGeometry width="160" relative="1" as="geometry">
            <mxPoint x="1130" y="550" as="sourcePoint" />
            <mxPoint x="790" y="525" as="targetPoint" />
          </mxGeometry>
        </mxCell>
        <mxCell id="pgdrck2Fgos7qRkNzWgf-35" value="" style="endArrow=none;endFill=0;endSize=12;html=1;rounded=0;fontSize=13;entryX=1;entryY=0.5;entryDx=0;entryDy=0;" parent="1" target="u2ZrrxIaHKpuG_xrhYa_-29" edge="1">
          <mxGeometry width="160" relative="1" as="geometry">
            <mxPoint x="1130" y="550" as="sourcePoint" />
            <mxPoint x="800" y="535" as="targetPoint" />
          </mxGeometry>
        </mxCell>
        <mxCell id="pgdrck2Fgos7qRkNzWgf-36" value="" style="endArrow=none;endFill=0;endSize=12;html=1;rounded=0;fontSize=13;entryX=1;entryY=0.5;entryDx=0;entryDy=0;" parent="1" target="u2ZrrxIaHKpuG_xrhYa_-30" edge="1">
          <mxGeometry width="160" relative="1" as="geometry">
            <mxPoint x="1130" y="550" as="sourcePoint" />
            <mxPoint x="810" y="545" as="targetPoint" />
          </mxGeometry>
        </mxCell>
        <mxCell id="pgdrck2Fgos7qRkNzWgf-37" value="посмотреть товары для спортзала и менять услуги спортзала" style="ellipse;whiteSpace=wrap;html=1;fontSize=14;" parent="1" vertex="1">
          <mxGeometry x="760" y="760" width="260" height="50" as="geometry" />
        </mxCell>
        <mxCell id="pgdrck2Fgos7qRkNzWgf-38" value="extend" style="html=1;verticalAlign=bottom;endArrow=open;dashed=1;endSize=8;rounded=0;fontSize=13;entryX=1;entryY=0;entryDx=0;entryDy=0;" parent="1" source="u2ZrrxIaHKpuG_xrhYa_-21" target="u2ZrrxIaHKpuG_xrhYa_-22" edge="1">
          <mxGeometry relative="1" as="geometry">
            <mxPoint x="774.8199999999999" y="328.25" as="sourcePoint" />
            <mxPoint x="540.6399999999999" y="269.9" as="targetPoint" />
          </mxGeometry>
        </mxCell>
        <mxCell id="pgdrck2Fgos7qRkNzWgf-39" value="&amp;lt;&amp;lt;include&amp;gt;&amp;gt;" style="endArrow=open;endSize=12;dashed=1;html=1;rounded=0;fontSize=14;entryX=1;entryY=0.5;entryDx=0;entryDy=0;exitX=0;exitY=0.5;exitDx=0;exitDy=0;" parent="1" source="u2ZrrxIaHKpuG_xrhYa_-29" target="u2ZrrxIaHKpuG_xrhYa_-23" edge="1">
          <mxGeometry x="-0.0909" width="160" relative="1" as="geometry">
            <mxPoint x="536.7499999999998" y="203" as="sourcePoint" />
            <mxPoint x="760" y="255" as="targetPoint" />
            <mxPoint as="offset" />
          </mxGeometry>
        </mxCell>
        <mxCell id="pgdrck2Fgos7qRkNzWgf-40" value="&amp;lt;&amp;lt;include&amp;gt;&amp;gt;" style="endArrow=open;endSize=12;dashed=1;html=1;rounded=0;fontSize=14;entryX=1;entryY=0.5;entryDx=0;entryDy=0;exitX=0;exitY=0.5;exitDx=0;exitDy=0;" parent="1" source="u2ZrrxIaHKpuG_xrhYa_-28" target="u2ZrrxIaHKpuG_xrhYa_-23" edge="1">
          <mxGeometry x="-0.0909" width="160" relative="1" as="geometry">
            <mxPoint x="760" y="645" as="sourcePoint" />
            <mxPoint x="550" y="645" as="targetPoint" />
            <mxPoint as="offset" />
          </mxGeometry>
        </mxCell>
        <mxCell id="pgdrck2Fgos7qRkNzWgf-41" value="extend" style="html=1;verticalAlign=bottom;endArrow=open;dashed=1;endSize=8;rounded=0;fontSize=13;entryX=0.039;entryY=0.261;entryDx=0;entryDy=0;exitX=0.648;exitY=1.024;exitDx=0;exitDy=0;exitPerimeter=0;entryPerimeter=0;" parent="1" source="u2ZrrxIaHKpuG_xrhYa_-21" target="pgdrck2Fgos7qRkNzWgf-37" edge="1">
          <mxGeometry x="-0.7619" y="3" relative="1" as="geometry">
            <mxPoint x="590.9127882556161" y="518.8431991640739" as="sourcePoint" />
            <mxPoint x="512.2587557393595" y="567.386964813395" as="targetPoint" />
            <mxPoint y="1" as="offset" />
          </mxGeometry>
        </mxCell>
        <mxCell id="pgdrck2Fgos7qRkNzWgf-42" value="extend" style="html=1;verticalAlign=bottom;endArrow=open;dashed=1;endSize=8;rounded=0;fontSize=13;exitX=1;exitY=0.5;exitDx=0;exitDy=0;entryX=0;entryY=0.5;entryDx=0;entryDy=0;" parent="1" source="u2ZrrxIaHKpuG_xrhYa_-22" target="pgdrck2Fgos7qRkNzWgf-37" edge="1">
          <mxGeometry x="-0.7619" y="3" relative="1" as="geometry">
            <mxPoint x="700.46" y="520.25" as="sourcePoint" />
            <mxPoint x="750" y="760" as="targetPoint" />
            <mxPoint y="1" as="offset" />
          </mxGeometry>
        </mxCell>
        <mxCell id="pgdrck2Fgos7qRkNzWgf-43" value="" style="endArrow=block;endSize=16;endFill=0;html=1;rounded=0;fontSize=13;" parent="1" edge="1">
          <mxGeometry width="160" relative="1" as="geometry">
            <mxPoint x="100" y="560" as="sourcePoint" />
            <mxPoint x="100" y="340" as="targetPoint" />
            <Array as="points" />
          </mxGeometry>
        </mxCell>
        <mxCell id="pgdrck2Fgos7qRkNzWgf-45" value="" style="endArrow=none;endFill=0;endSize=12;html=1;rounded=0;fontSize=13;entryX=0;entryY=0.5;entryDx=0;entryDy=0;" parent="1" target="u2ZrrxIaHKpuG_xrhYa_-22" edge="1">
          <mxGeometry width="160" relative="1" as="geometry">
            <mxPoint x="120" y="280" as="sourcePoint" />
            <mxPoint x="500" y="495" as="targetPoint" />
          </mxGeometry>
        </mxCell>
        <mxCell id="pgdrck2Fgos7qRkNzWgf-46" value="extend" style="html=1;verticalAlign=bottom;endArrow=open;dashed=1;endSize=8;rounded=0;fontSize=13;entryX=0;entryY=0.5;entryDx=0;entryDy=0;exitX=1;exitY=0.5;exitDx=0;exitDy=0;" parent="1" source="u2ZrrxIaHKpuG_xrhYa_-24" target="u2ZrrxIaHKpuG_xrhYa_-30" edge="1">
          <mxGeometry x="-0.5226" y="3" relative="1" as="geometry">
            <mxPoint x="590.9127882556161" y="518.8431991640739" as="sourcePoint" />
            <mxPoint x="512.2587557393595" y="567.386964813395" as="targetPoint" />
            <mxPoint as="offset" />
          </mxGeometry>
        </mxCell>
        <mxCell id="pgdrck2Fgos7qRkNzWgf-47" value="сделать общий отчет" style="ellipse;whiteSpace=wrap;html=1;fontSize=14;" parent="1" vertex="1">
          <mxGeometry x="275" y="760" width="260" height="50" as="geometry" />
        </mxCell>
        <mxCell id="pgdrck2Fgos7qRkNzWgf-48" value="" style="endArrow=none;endFill=0;endSize=12;html=1;rounded=0;fontSize=13;entryX=0;entryY=0.5;entryDx=0;entryDy=0;" parent="1" target="pgdrck2Fgos7qRkNzWgf-47" edge="1">
          <mxGeometry width="160" relative="1" as="geometry">
            <mxPoint x="140" y="600" as="sourcePoint" />
            <mxPoint x="290" y="715" as="targetPoint" />
          </mxGeometry>
        </mxCell>
        <mxCell id="tqr9eHItyo2_pzZcmq8r-1" value="extend" style="html=1;verticalAlign=bottom;endArrow=open;dashed=1;endSize=8;rounded=0;fontSize=13;entryX=1;entryY=0.5;entryDx=0;entryDy=0;" parent="1" target="u2ZrrxIaHKpuG_xrhYa_-18" edge="1">
          <mxGeometry relative="1" as="geometry">
            <mxPoint x="760" y="320" as="sourcePoint" />
            <mxPoint x="535.7" y="268" as="targetPoint" />
          </mxGeometry>
        </mxCell>
        <mxCell id="tqr9eHItyo2_pzZcmq8r-2" value="extend" style="html=1;verticalAlign=bottom;endArrow=open;dashed=1;endSize=8;rounded=0;fontSize=13;entryX=1;entryY=0.5;entryDx=0;entryDy=0;" parent="1" target="pgdrck2Fgos7qRkNzWgf-47" edge="1">
          <mxGeometry x="0.8595" y="-15" relative="1" as="geometry">
            <mxPoint x="750" y="580" as="sourcePoint" />
            <mxPoint x="560" y="315" as="targetPoint" />
            <mxPoint as="offset" />
          </mxGeometry>
        </mxCell>
        <mxCell id="tqr9eHItyo2_pzZcmq8r-3" value="extend" style="html=1;verticalAlign=bottom;endArrow=open;dashed=1;endSize=8;rounded=0;fontSize=13;exitX=0;exitY=0.5;exitDx=0;exitDy=0;" parent="1" source="u2ZrrxIaHKpuG_xrhYa_-29" edge="1">
          <mxGeometry x="0.4936" y="11" relative="1" as="geometry">
            <mxPoint x="760" y="590" as="sourcePoint" />
            <mxPoint x="540" y="790" as="targetPoint" />
            <mxPoint x="1" as="offset" />
          </mxGeometry>
        </mxCell>
        <mxCell id="tqr9eHItyo2_pzZcmq8r-4" value="extend" style="html=1;verticalAlign=bottom;endArrow=open;dashed=1;endSize=8;rounded=0;fontSize=13;exitX=0.057;exitY=0.751;exitDx=0;exitDy=0;exitPerimeter=0;entryX=0.947;entryY=0.727;entryDx=0;entryDy=0;entryPerimeter=0;" parent="1" source="pgdrck2Fgos7qRkNzWgf-37" target="pgdrck2Fgos7qRkNzWgf-47" edge="1">
          <mxGeometry x="0.6148" y="13" relative="1" as="geometry">
            <mxPoint x="760" y="645" as="sourcePoint" />
            <mxPoint x="550" y="800" as="targetPoint" />
            <mxPoint as="offset" />
          </mxGeometry>
        </mxCell>
        <mxCell id="tqr9eHItyo2_pzZcmq8r-5" value="" style="endArrow=none;endFill=0;endSize=12;html=1;rounded=0;fontSize=13;entryX=1;entryY=0.5;entryDx=0;entryDy=0;" parent="1" target="pgdrck2Fgos7qRkNzWgf-37" edge="1">
          <mxGeometry width="160" relative="1" as="geometry">
            <mxPoint x="1130" y="550" as="sourcePoint" />
            <mxPoint x="1030" y="705" as="targetPoint" />
          </mxGeometry>
        </mxCell>
      </root>
    </mxGraphModel>
  </diagram>
  <diagram id="Uj0VxT-WQNtdFhk5L0RM" name="Activity Diagram">
    <mxGraphModel dx="1107" dy="707" grid="1" gridSize="10" guides="1" tooltips="1" connect="1" arrows="1" fold="1" page="1" pageScale="1" pageWidth="1250" pageHeight="800" math="0" shadow="0">
      <root>
        <mxCell id="0" />
        <mxCell id="1" parent="0" />
        <mxCell id="BMfIpuo3zM_fRxc-UmPu-1" value="&lt;font style=&quot;font-size: 14px;&quot;&gt;Войти в систему управления тренажерным залом&lt;/font&gt;" style="rounded=1;whiteSpace=wrap;html=1;" parent="1" vertex="1">
          <mxGeometry x="502" y="20" width="196" height="40" as="geometry" />
        </mxCell>
        <mxCell id="BMfIpuo3zM_fRxc-UmPu-2" value="&lt;font style=&quot;font-size: 14px;&quot;&gt;Провервить уровени пользователя и разрешения&lt;/font&gt;" style="rounded=1;whiteSpace=wrap;html=1;" parent="1" vertex="1">
          <mxGeometry x="502" y="120" width="196" height="40" as="geometry" />
        </mxCell>
        <mxCell id="BMfIpuo3zM_fRxc-UmPu-4" value="" style="endArrow=classic;html=1;rounded=0;exitX=0.5;exitY=1;exitDx=0;exitDy=0;entryX=0.5;entryY=0;entryDx=0;entryDy=0;entryPerimeter=0;" parent="1" source="BMfIpuo3zM_fRxc-UmPu-1" target="BMfIpuo3zM_fRxc-UmPu-2" edge="1">
          <mxGeometry width="50" height="50" relative="1" as="geometry">
            <mxPoint x="390" y="350" as="sourcePoint" />
            <mxPoint x="440" y="300" as="targetPoint" />
          </mxGeometry>
        </mxCell>
        <mxCell id="BMfIpuo3zM_fRxc-UmPu-5" value="" style="endArrow=classic;html=1;rounded=0;exitX=0.5;exitY=1;exitDx=0;exitDy=0;" parent="1" source="BMfIpuo3zM_fRxc-UmPu-2" edge="1">
          <mxGeometry width="50" height="50" relative="1" as="geometry">
            <mxPoint x="390" y="350" as="sourcePoint" />
            <mxPoint x="600" y="250" as="targetPoint" />
          </mxGeometry>
        </mxCell>
        <mxCell id="BMfIpuo3zM_fRxc-UmPu-7" value="&lt;font style=&quot;font-size: 14px;&quot;&gt;Проверить разрешения&lt;/font&gt;" style="rhombus;whiteSpace=wrap;html=1;" parent="1" vertex="1">
          <mxGeometry x="17" y="330" width="140" height="80" as="geometry" />
        </mxCell>
        <mxCell id="bRfu427JvfGDp2SuNYto-1" value="&lt;font style=&quot;font-size: 14px;&quot;&gt;Проверить разрешения&lt;/font&gt;" style="rhombus;whiteSpace=wrap;html=1;" parent="1" vertex="1">
          <mxGeometry x="530" y="330" width="140" height="80" as="geometry" />
        </mxCell>
        <mxCell id="bRfu427JvfGDp2SuNYto-4" value="&lt;font style=&quot;font-size: 14px;&quot;&gt;Проверить разрешения&lt;/font&gt;" style="rhombus;whiteSpace=wrap;html=1;" parent="1" vertex="1">
          <mxGeometry x="180" y="330" width="140" height="80" as="geometry" />
        </mxCell>
        <mxCell id="bRfu427JvfGDp2SuNYto-5" value="&lt;font style=&quot;font-size: 14px;&quot;&gt;Проверить разрешения&lt;/font&gt;" style="rhombus;whiteSpace=wrap;html=1;" parent="1" vertex="1">
          <mxGeometry x="362" y="330" width="140" height="80" as="geometry" />
        </mxCell>
        <mxCell id="bRfu427JvfGDp2SuNYto-6" value="&lt;font style=&quot;font-size: 14px;&quot;&gt;Проверрить разрешения&lt;/font&gt;" style="rhombus;whiteSpace=wrap;html=1;" parent="1" vertex="1">
          <mxGeometry x="698" y="330" width="140" height="80" as="geometry" />
        </mxCell>
        <mxCell id="bRfu427JvfGDp2SuNYto-7" value="&lt;font style=&quot;font-size: 14px;&quot;&gt;Проверить разрешения&lt;/font&gt;" style="rhombus;whiteSpace=wrap;html=1;" parent="1" vertex="1">
          <mxGeometry x="860" y="330" width="140" height="80" as="geometry" />
        </mxCell>
        <mxCell id="W-xDu4ldbeQTcwtSutO8-1" value="&lt;font style=&quot;font-size: 14px;&quot;&gt;Проверить разрешения&lt;/font&gt;" style="rhombus;whiteSpace=wrap;html=1;" parent="1" vertex="1">
          <mxGeometry x="1030" y="330" width="140" height="80" as="geometry" />
        </mxCell>
        <mxCell id="t3gbZpRHwdEfWjGEi-9E-2" value="" style="endArrow=classic;html=1;rounded=0;entryX=0.5;entryY=0;entryDx=0;entryDy=0;" parent="1" target="BMfIpuo3zM_fRxc-UmPu-7" edge="1">
          <mxGeometry width="50" height="50" relative="1" as="geometry">
            <mxPoint x="87" y="250" as="sourcePoint" />
            <mxPoint x="630" y="320" as="targetPoint" />
          </mxGeometry>
        </mxCell>
        <mxCell id="t3gbZpRHwdEfWjGEi-9E-3" value="" style="endArrow=classic;html=1;rounded=0;entryX=0.5;entryY=0;entryDx=0;entryDy=0;" parent="1" target="bRfu427JvfGDp2SuNYto-4" edge="1">
          <mxGeometry width="50" height="50" relative="1" as="geometry">
            <mxPoint x="250" y="250" as="sourcePoint" />
            <mxPoint x="97" y="340" as="targetPoint" />
          </mxGeometry>
        </mxCell>
        <mxCell id="t3gbZpRHwdEfWjGEi-9E-4" value="" style="endArrow=classic;html=1;rounded=0;entryX=0.5;entryY=0;entryDx=0;entryDy=0;" parent="1" target="bRfu427JvfGDp2SuNYto-5" edge="1">
          <mxGeometry width="50" height="50" relative="1" as="geometry">
            <mxPoint x="432" y="250" as="sourcePoint" />
            <mxPoint x="107" y="350" as="targetPoint" />
          </mxGeometry>
        </mxCell>
        <mxCell id="t3gbZpRHwdEfWjGEi-9E-5" value="" style="endArrow=classic;html=1;rounded=0;entryX=0.5;entryY=0;entryDx=0;entryDy=0;" parent="1" target="bRfu427JvfGDp2SuNYto-1" edge="1">
          <mxGeometry width="50" height="50" relative="1" as="geometry">
            <mxPoint x="600" y="250" as="sourcePoint" />
            <mxPoint x="117" y="360" as="targetPoint" />
          </mxGeometry>
        </mxCell>
        <mxCell id="t3gbZpRHwdEfWjGEi-9E-6" value="" style="endArrow=classic;html=1;rounded=0;entryX=0.5;entryY=0;entryDx=0;entryDy=0;" parent="1" target="bRfu427JvfGDp2SuNYto-6" edge="1">
          <mxGeometry width="50" height="50" relative="1" as="geometry">
            <mxPoint x="768" y="250" as="sourcePoint" />
            <mxPoint x="127" y="370" as="targetPoint" />
          </mxGeometry>
        </mxCell>
        <mxCell id="t3gbZpRHwdEfWjGEi-9E-7" value="" style="endArrow=classic;html=1;rounded=0;entryX=0.5;entryY=0;entryDx=0;entryDy=0;" parent="1" target="bRfu427JvfGDp2SuNYto-7" edge="1">
          <mxGeometry width="50" height="50" relative="1" as="geometry">
            <mxPoint x="930" y="250" as="sourcePoint" />
            <mxPoint x="137" y="380" as="targetPoint" />
          </mxGeometry>
        </mxCell>
        <mxCell id="t3gbZpRHwdEfWjGEi-9E-8" value="" style="endArrow=classic;html=1;rounded=0;entryX=0.5;entryY=0;entryDx=0;entryDy=0;" parent="1" target="W-xDu4ldbeQTcwtSutO8-1" edge="1">
          <mxGeometry width="50" height="50" relative="1" as="geometry">
            <mxPoint x="1100" y="250" as="sourcePoint" />
            <mxPoint x="147" y="390" as="targetPoint" />
          </mxGeometry>
        </mxCell>
        <mxCell id="t3gbZpRHwdEfWjGEi-9E-9" value="" style="endArrow=none;html=1;rounded=0;" parent="1" edge="1">
          <mxGeometry width="50" height="50" relative="1" as="geometry">
            <mxPoint x="90" y="250" as="sourcePoint" />
            <mxPoint x="1100" y="250" as="targetPoint" />
          </mxGeometry>
        </mxCell>
        <mxCell id="t3gbZpRHwdEfWjGEi-9E-10" value="" style="endArrow=classic;html=1;rounded=0;exitX=0.5;exitY=1;exitDx=0;exitDy=0;" parent="1" source="BMfIpuo3zM_fRxc-UmPu-7" edge="1">
          <mxGeometry width="50" height="50" relative="1" as="geometry">
            <mxPoint x="97" y="260" as="sourcePoint" />
            <mxPoint x="87" y="490" as="targetPoint" />
          </mxGeometry>
        </mxCell>
        <mxCell id="t3gbZpRHwdEfWjGEi-9E-11" value="" style="endArrow=classic;html=1;rounded=0;exitX=0.5;exitY=1;exitDx=0;exitDy=0;" parent="1" source="bRfu427JvfGDp2SuNYto-4" edge="1">
          <mxGeometry width="50" height="50" relative="1" as="geometry">
            <mxPoint x="240" y="490" as="sourcePoint" />
            <mxPoint x="250" y="490" as="targetPoint" />
          </mxGeometry>
        </mxCell>
        <mxCell id="t3gbZpRHwdEfWjGEi-9E-12" value="" style="endArrow=classic;html=1;rounded=0;exitX=0.5;exitY=1;exitDx=0;exitDy=0;" parent="1" source="bRfu427JvfGDp2SuNYto-5" edge="1">
          <mxGeometry width="50" height="50" relative="1" as="geometry">
            <mxPoint x="117" y="280" as="sourcePoint" />
            <mxPoint x="432" y="490" as="targetPoint" />
          </mxGeometry>
        </mxCell>
        <mxCell id="t3gbZpRHwdEfWjGEi-9E-13" value="" style="endArrow=classic;html=1;rounded=0;exitX=0.5;exitY=1;exitDx=0;exitDy=0;" parent="1" source="bRfu427JvfGDp2SuNYto-1" edge="1">
          <mxGeometry width="50" height="50" relative="1" as="geometry">
            <mxPoint x="127" y="290" as="sourcePoint" />
            <mxPoint x="600" y="490" as="targetPoint" />
          </mxGeometry>
        </mxCell>
        <mxCell id="t3gbZpRHwdEfWjGEi-9E-16" value="" style="endArrow=classic;html=1;rounded=0;exitX=0.5;exitY=1;exitDx=0;exitDy=0;" parent="1" source="bRfu427JvfGDp2SuNYto-7" edge="1">
          <mxGeometry width="50" height="50" relative="1" as="geometry">
            <mxPoint x="147" y="310" as="sourcePoint" />
            <mxPoint x="930" y="490" as="targetPoint" />
          </mxGeometry>
        </mxCell>
        <mxCell id="t3gbZpRHwdEfWjGEi-9E-17" value="" style="endArrow=classic;html=1;rounded=0;exitX=0.5;exitY=1;exitDx=0;exitDy=0;" parent="1" source="W-xDu4ldbeQTcwtSutO8-1" edge="1">
          <mxGeometry width="50" height="50" relative="1" as="geometry">
            <mxPoint x="157" y="320" as="sourcePoint" />
            <mxPoint x="1100" y="490" as="targetPoint" />
          </mxGeometry>
        </mxCell>
        <mxCell id="t3gbZpRHwdEfWjGEi-9E-18" value="" style="endArrow=classic;html=1;rounded=0;exitX=0.5;exitY=1;exitDx=0;exitDy=0;" parent="1" source="bRfu427JvfGDp2SuNYto-6" edge="1">
          <mxGeometry width="50" height="50" relative="1" as="geometry">
            <mxPoint x="940" y="420" as="sourcePoint" />
            <mxPoint x="770" y="490" as="targetPoint" />
          </mxGeometry>
        </mxCell>
        <mxCell id="t3gbZpRHwdEfWjGEi-9E-23" value="" style="endArrow=classic;html=1;rounded=0;exitX=1;exitY=0.75;exitDx=0;exitDy=0;" parent="1" edge="1">
          <mxGeometry width="50" height="50" relative="1" as="geometry">
            <mxPoint x="698" y="720" as="sourcePoint" />
            <mxPoint x="830" y="720" as="targetPoint" />
          </mxGeometry>
        </mxCell>
        <mxCell id="t3gbZpRHwdEfWjGEi-9E-24" value="" style="endArrow=classic;html=1;rounded=0;entryX=0;entryY=0.5;entryDx=0;entryDy=0;" parent="1" target="BMfIpuo3zM_fRxc-UmPu-1" edge="1">
          <mxGeometry width="50" height="50" relative="1" as="geometry">
            <mxPoint x="360" y="40" as="sourcePoint" />
            <mxPoint x="830" y="650" as="targetPoint" />
          </mxGeometry>
        </mxCell>
        <mxCell id="t3gbZpRHwdEfWjGEi-9E-25" value="" style="ellipse;whiteSpace=wrap;html=1;aspect=fixed;fillColor=#1A1A1A;" parent="1" vertex="1">
          <mxGeometry x="312" y="20" width="50" height="50" as="geometry" />
        </mxCell>
        <mxCell id="t3gbZpRHwdEfWjGEi-9E-27" value="&lt;font style=&quot;font-size: 15px;&quot;&gt;Старт&lt;/font&gt;" style="text;html=1;resizable=0;autosize=1;align=center;verticalAlign=middle;points=[];fillColor=none;strokeColor=none;rounded=0;" parent="1" vertex="1">
          <mxGeometry x="307" y="70" width="60" height="30" as="geometry" />
        </mxCell>
        <mxCell id="t3gbZpRHwdEfWjGEi-9E-28" value="&lt;font style=&quot;font-size: 15px;&quot;&gt;Конец&lt;/font&gt;" style="text;html=1;resizable=0;autosize=1;align=center;verticalAlign=middle;points=[];fillColor=none;strokeColor=none;rounded=0;fontSize=20;" parent="1" vertex="1">
          <mxGeometry x="870" y="700" width="70" height="40" as="geometry" />
        </mxCell>
        <mxCell id="um7zSH4mjj-_cBNrROY_-1" value="управлять пользователями" style="rounded=1;whiteSpace=wrap;html=1;fontSize=15;fillColor=#FFFFFF;" parent="1" vertex="1">
          <mxGeometry x="10.5" y="490" width="153" height="30" as="geometry" />
        </mxCell>
        <mxCell id="um7zSH4mjj-_cBNrROY_-2" value="управлять пакетами" style="rounded=1;whiteSpace=wrap;html=1;fontSize=15;fillColor=#FFFFFF;" parent="1" vertex="1">
          <mxGeometry x="190" y="490" width="153" height="30" as="geometry" />
        </mxCell>
        <mxCell id="um7zSH4mjj-_cBNrROY_-3" value="управлять членством" style="rounded=1;whiteSpace=wrap;html=1;fontSize=15;fillColor=#FFFFFF;" parent="1" vertex="1">
          <mxGeometry x="362" y="490" width="153" height="30" as="geometry" />
        </mxCell>
        <mxCell id="um7zSH4mjj-_cBNrROY_-4" value="управлять фитнес-расписанием" style="rounded=1;whiteSpace=wrap;html=1;fontSize=15;fillColor=#FFFFFF;" parent="1" vertex="1">
          <mxGeometry x="540" y="490" width="153" height="30" as="geometry" />
        </mxCell>
        <mxCell id="um7zSH4mjj-_cBNrROY_-5" value="управлять тренерами" style="rounded=1;whiteSpace=wrap;html=1;fontSize=15;fillColor=#FFFFFF;" parent="1" vertex="1">
          <mxGeometry x="717" y="490" width="153" height="30" as="geometry" />
        </mxCell>
        <mxCell id="um7zSH4mjj-_cBNrROY_-6" value="управлять функциями система&amp;nbsp;" style="rounded=1;whiteSpace=wrap;html=1;fontSize=15;fillColor=#FFFFFF;" parent="1" vertex="1">
          <mxGeometry x="890" y="490" width="153" height="30" as="geometry" />
        </mxCell>
        <mxCell id="um7zSH4mjj-_cBNrROY_-7" value="управлять платежами" style="rounded=1;whiteSpace=wrap;html=1;fontSize=15;fillColor=#FFFFFF;" parent="1" vertex="1">
          <mxGeometry x="1060" y="490" width="153" height="30" as="geometry" />
        </mxCell>
        <mxCell id="um7zSH4mjj-_cBNrROY_-8" value="" style="endArrow=classic;html=1;rounded=0;fontSize=15;exitX=0.5;exitY=1;exitDx=0;exitDy=0;" parent="1" source="um7zSH4mjj-_cBNrROY_-1" edge="1">
          <mxGeometry width="50" height="50" relative="1" as="geometry">
            <mxPoint x="490" y="600" as="sourcePoint" />
            <mxPoint x="87" y="610" as="targetPoint" />
          </mxGeometry>
        </mxCell>
        <mxCell id="um7zSH4mjj-_cBNrROY_-14" value="" style="endArrow=classic;html=1;rounded=0;fontSize=15;exitX=0.386;exitY=1.082;exitDx=0;exitDy=0;exitPerimeter=0;" parent="1" source="um7zSH4mjj-_cBNrROY_-2" edge="1">
          <mxGeometry width="50" height="50" relative="1" as="geometry">
            <mxPoint x="550" y="600" as="sourcePoint" />
            <mxPoint x="249" y="610" as="targetPoint" />
          </mxGeometry>
        </mxCell>
        <mxCell id="um7zSH4mjj-_cBNrROY_-16" value="" style="endArrow=classic;html=1;rounded=0;fontSize=15;exitX=0.5;exitY=1;exitDx=0;exitDy=0;" parent="1" source="um7zSH4mjj-_cBNrROY_-3" edge="1">
          <mxGeometry width="50" height="50" relative="1" as="geometry">
            <mxPoint x="259.058" y="532.4599999999998" as="sourcePoint" />
            <mxPoint x="439" y="610" as="targetPoint" />
          </mxGeometry>
        </mxCell>
        <mxCell id="um7zSH4mjj-_cBNrROY_-17" value="" style="endArrow=classic;html=1;rounded=0;fontSize=15;" parent="1" edge="1">
          <mxGeometry width="50" height="50" relative="1" as="geometry">
            <mxPoint x="596" y="520" as="sourcePoint" />
            <mxPoint x="596" y="610" as="targetPoint" />
          </mxGeometry>
        </mxCell>
        <mxCell id="um7zSH4mjj-_cBNrROY_-18" value="" style="endArrow=classic;html=1;rounded=0;fontSize=15;exitX=0.35;exitY=1.114;exitDx=0;exitDy=0;exitPerimeter=0;" parent="1" source="um7zSH4mjj-_cBNrROY_-5" edge="1">
          <mxGeometry width="50" height="50" relative="1" as="geometry">
            <mxPoint x="279.058" y="552.4599999999998" as="sourcePoint" />
            <mxPoint x="771" y="610" as="targetPoint" />
          </mxGeometry>
        </mxCell>
        <mxCell id="um7zSH4mjj-_cBNrROY_-19" value="" style="endArrow=classic;html=1;rounded=0;fontSize=15;exitX=0.25;exitY=1;exitDx=0;exitDy=0;" parent="1" source="um7zSH4mjj-_cBNrROY_-6" edge="1">
          <mxGeometry width="50" height="50" relative="1" as="geometry">
            <mxPoint x="289.058" y="562.4599999999998" as="sourcePoint" />
            <mxPoint x="928" y="610" as="targetPoint" />
          </mxGeometry>
        </mxCell>
        <mxCell id="um7zSH4mjj-_cBNrROY_-20" value="" style="endArrow=classic;html=1;rounded=0;fontSize=15;exitX=0.25;exitY=1;exitDx=0;exitDy=0;" parent="1" source="um7zSH4mjj-_cBNrROY_-7" edge="1">
          <mxGeometry width="50" height="50" relative="1" as="geometry">
            <mxPoint x="299.058" y="572.4599999999998" as="sourcePoint" />
            <mxPoint x="1100" y="610" as="targetPoint" />
          </mxGeometry>
        </mxCell>
        <mxCell id="um7zSH4mjj-_cBNrROY_-25" value="" style="endArrow=classic;html=1;rounded=0;fontSize=15;" parent="1" edge="1">
          <mxGeometry width="50" height="50" relative="1" as="geometry">
            <mxPoint x="596.5" y="610" as="sourcePoint" />
            <mxPoint x="597" y="700" as="targetPoint" />
          </mxGeometry>
        </mxCell>
        <mxCell id="um7zSH4mjj-_cBNrROY_-26" value="&lt;font style=&quot;font-size: 14px;&quot;&gt;Выход из системы&lt;/font&gt;" style="rounded=1;whiteSpace=wrap;html=1;" parent="1" vertex="1">
          <mxGeometry x="502" y="700" width="196" height="40" as="geometry" />
        </mxCell>
        <mxCell id="um7zSH4mjj-_cBNrROY_-27" value="" style="endArrow=none;html=1;rounded=0;" parent="1" edge="1">
          <mxGeometry width="50" height="50" relative="1" as="geometry">
            <mxPoint x="90" y="610" as="sourcePoint" />
            <mxPoint x="1100" y="610" as="targetPoint" />
          </mxGeometry>
        </mxCell>
        <mxCell id="tjgnzYcB-EWcaRhS-PUK-1" value="" style="ellipse;html=1;shape=endState;fillColor=#000000;strokeColor=#ff0000;" parent="1" vertex="1">
          <mxGeometry x="830" y="695" width="52" height="50" as="geometry" />
        </mxCell>
      </root>
    </mxGraphModel>
  </diagram>
  <diagram id="1NtGXsdbdAMBXLTJWbeg" name="Sequence Diagram">
    <mxGraphModel dx="1107" dy="707" grid="1" gridSize="10" guides="1" tooltips="1" connect="1" arrows="1" fold="1" page="1" pageScale="1" pageWidth="850" pageHeight="1150" math="0" shadow="0">
      <root>
        <mxCell id="0" />
        <mxCell id="1" parent="0" />
        <mxCell id="3q_z10uOaucIML_WXEq3-1" value="Администратор" style="shape=umlActor;verticalLabelPosition=bottom;verticalAlign=top;html=1;fontSize=15;fillColor=#FFFFFF;" parent="1" vertex="1">
          <mxGeometry x="60" y="45" width="30" height="60" as="geometry" />
        </mxCell>
        <mxCell id="3q_z10uOaucIML_WXEq3-2" value="&lt;font style=&quot;font-size: 13px;&quot;&gt;Успешный вход в систему&lt;/font&gt;" style="html=1;fontSize=15;fillColor=default;" parent="1" vertex="1">
          <mxGeometry x="160" y="50" width="160" height="55" as="geometry" />
        </mxCell>
        <mxCell id="3q_z10uOaucIML_WXEq3-5" value="&lt;font style=&quot;font-size: 13px;&quot;&gt;Членство&lt;br&gt;&lt;/font&gt;" style="html=1;fontSize=15;fillColor=#FFFFFF;" parent="1" vertex="1">
          <mxGeometry x="580" y="50" width="160" height="55" as="geometry" />
        </mxCell>
        <mxCell id="3q_z10uOaucIML_WXEq3-6" value="&lt;span style=&quot;font-size: 13px;&quot;&gt;Фитнес-класс&lt;/span&gt;" style="html=1;fontSize=15;fillColor=#FFFFFF;" parent="1" vertex="1">
          <mxGeometry x="750" y="50" width="200" height="55" as="geometry" />
        </mxCell>
        <mxCell id="5_bxIKTVobbUFaO7AErP-1" value="Тренер" style="html=1;fontSize=15;fillColor=#FFFFFF;" parent="1" vertex="1">
          <mxGeometry x="970" y="50" width="160" height="55" as="geometry" />
        </mxCell>
        <mxCell id="5_bxIKTVobbUFaO7AErP-2" value="&lt;span style=&quot;font-size: 13px;&quot;&gt;Пакет&lt;/span&gt;" style="html=1;fontSize=15;fillColor=#FFFFFF;" parent="1" vertex="1">
          <mxGeometry x="1140" y="50" width="190" height="55" as="geometry" />
        </mxCell>
        <mxCell id="5_bxIKTVobbUFaO7AErP-3" value="Оплата" style="html=1;fontSize=15;fillColor=#FFFFFF;" parent="1" vertex="1">
          <mxGeometry x="1360" y="50" width="160" height="55" as="geometry" />
        </mxCell>
        <mxCell id="jDjbwVpOF3AYtSn6SCNv-5" value="" style="endArrow=none;dashed=1;html=1;rounded=0;fontSize=13;startArrow=none;" parent="1" source="jDjbwVpOF3AYtSn6SCNv-26" edge="1">
          <mxGeometry width="50" height="50" relative="1" as="geometry">
            <mxPoint x="240" y="760" as="sourcePoint" />
            <mxPoint x="240" y="110" as="targetPoint" />
          </mxGeometry>
        </mxCell>
        <mxCell id="jDjbwVpOF3AYtSn6SCNv-8" value="" style="endArrow=none;dashed=1;html=1;rounded=0;fontSize=13;" parent="1" edge="1">
          <mxGeometry width="50" height="50" relative="1" as="geometry">
            <mxPoint x="470" y="1060" as="sourcePoint" />
            <mxPoint x="469.5" y="105" as="targetPoint" />
          </mxGeometry>
        </mxCell>
        <mxCell id="jDjbwVpOF3AYtSn6SCNv-11" value="" style="endArrow=none;dashed=1;html=1;rounded=0;fontSize=13;startArrow=none;" parent="1" source="1QQwhmRii5E-s2BLmxwo-18" edge="1">
          <mxGeometry width="50" height="50" relative="1" as="geometry">
            <mxPoint x="700" y="1180" as="sourcePoint" />
            <mxPoint x="700" y="110" as="targetPoint" />
          </mxGeometry>
        </mxCell>
        <mxCell id="jDjbwVpOF3AYtSn6SCNv-12" value="" style="endArrow=none;dashed=1;html=1;rounded=0;fontSize=13;" parent="1" edge="1">
          <mxGeometry width="50" height="50" relative="1" as="geometry">
            <mxPoint x="860" y="1060" as="sourcePoint" />
            <mxPoint x="859.5" y="105" as="targetPoint" />
          </mxGeometry>
        </mxCell>
        <mxCell id="jDjbwVpOF3AYtSn6SCNv-13" value="" style="endArrow=none;dashed=1;html=1;rounded=0;fontSize=13;" parent="1" edge="1">
          <mxGeometry width="50" height="50" relative="1" as="geometry">
            <mxPoint x="1060" y="1060" as="sourcePoint" />
            <mxPoint x="1060" y="105" as="targetPoint" />
          </mxGeometry>
        </mxCell>
        <mxCell id="jDjbwVpOF3AYtSn6SCNv-14" value="" style="endArrow=none;dashed=1;html=1;rounded=0;fontSize=13;startArrow=none;exitX=0.729;exitY=-0.008;exitDx=0;exitDy=0;exitPerimeter=0;" parent="1" source="Hklf_M6kQkORzsyeGWFQ-1" edge="1">
          <mxGeometry width="50" height="50" relative="1" as="geometry">
            <mxPoint x="1240" y="1060" as="sourcePoint" />
            <mxPoint x="1239.5" y="105" as="targetPoint" />
          </mxGeometry>
        </mxCell>
        <mxCell id="jDjbwVpOF3AYtSn6SCNv-15" value="" style="endArrow=none;dashed=1;html=1;rounded=0;fontSize=13;" parent="1" edge="1">
          <mxGeometry width="50" height="50" relative="1" as="geometry">
            <mxPoint x="1440" y="1060" as="sourcePoint" />
            <mxPoint x="1439.5" y="105" as="targetPoint" />
          </mxGeometry>
        </mxCell>
        <mxCell id="jDjbwVpOF3AYtSn6SCNv-17" value="Тренер" style="shape=umlActor;verticalLabelPosition=bottom;verticalAlign=top;html=1;fontSize=15;fillColor=#FFFFFF;" parent="1" vertex="1">
          <mxGeometry x="60.01" y="470" width="30" height="60" as="geometry" />
        </mxCell>
        <mxCell id="jDjbwVpOF3AYtSn6SCNv-18" value="Пользователь" style="shape=umlActor;verticalLabelPosition=bottom;verticalAlign=top;html=1;fontSize=15;fillColor=#FFFFFF;" parent="1" vertex="1">
          <mxGeometry x="62.5" y="820" width="30" height="60" as="geometry" />
        </mxCell>
        <mxCell id="jDjbwVpOF3AYtSn6SCNv-21" value="" style="rounded=0;whiteSpace=wrap;html=1;fontSize=13;rotation=-90;fillColor=#000033;" parent="1" vertex="1">
          <mxGeometry x="-82.81" y="292.82" width="315.63" height="10" as="geometry" />
        </mxCell>
        <mxCell id="jDjbwVpOF3AYtSn6SCNv-22" value="" style="rounded=0;whiteSpace=wrap;html=1;fontSize=13;rotation=-90;fillColor=#003300;" parent="1" vertex="1">
          <mxGeometry x="-47.5" y="672.5" width="250" height="10" as="geometry" />
        </mxCell>
        <mxCell id="jDjbwVpOF3AYtSn6SCNv-25" value="" style="endArrow=classic;html=1;rounded=0;fontSize=13;exitX=0.942;exitY=0.75;exitDx=0;exitDy=0;exitPerimeter=0;entryX=0.75;entryY=0;entryDx=0;entryDy=0;" parent="1" source="Za9v6x2wVgbu6E6E0Tvg-28" target="Za9v6x2wVgbu6E6E0Tvg-20" edge="1">
          <mxGeometry width="50" height="50" relative="1" as="geometry">
            <mxPoint x="190" y="820.02" as="sourcePoint" />
            <mxPoint x="348" y="820" as="targetPoint" />
          </mxGeometry>
        </mxCell>
        <mxCell id="jDjbwVpOF3AYtSn6SCNv-26" value="" style="rounded=0;whiteSpace=wrap;html=1;fontSize=13;rotation=-90;fillColor=#003300;" parent="1" vertex="1">
          <mxGeometry x="220.06" y="161.83" width="39.9" height="12.5" as="geometry" />
        </mxCell>
        <mxCell id="jDjbwVpOF3AYtSn6SCNv-27" value="" style="endArrow=none;dashed=1;html=1;rounded=0;fontSize=13;startArrow=none;" parent="1" source="Za9v6x2wVgbu6E6E0Tvg-9" target="jDjbwVpOF3AYtSn6SCNv-26" edge="1">
          <mxGeometry width="50" height="50" relative="1" as="geometry">
            <mxPoint x="240" y="1160" as="sourcePoint" />
            <mxPoint x="240" y="110" as="targetPoint" />
          </mxGeometry>
        </mxCell>
        <mxCell id="jDjbwVpOF3AYtSn6SCNv-30" value="" style="endArrow=classic;html=1;rounded=0;fontSize=13;exitX=0.927;exitY=1;exitDx=0;exitDy=0;exitPerimeter=0;" parent="1" source="jDjbwVpOF3AYtSn6SCNv-21" edge="1">
          <mxGeometry width="50" height="50" relative="1" as="geometry">
            <mxPoint x="500" y="420" as="sourcePoint" />
            <mxPoint x="230" y="160" as="targetPoint" />
          </mxGeometry>
        </mxCell>
        <mxCell id="m9YPosglwOMB7GmHJ0tp-1" value="&lt;span style=&quot;font-size: 13px;&quot;&gt;Юзер&lt;/span&gt;" style="html=1;fontSize=15;fillColor=#FFFFFF;" parent="1" vertex="1">
          <mxGeometry x="360" y="50" width="170" height="55" as="geometry" />
        </mxCell>
        <mxCell id="Za9v6x2wVgbu6E6E0Tvg-1" value="" style="endArrow=classic;html=1;rounded=0;fontSize=13;" parent="1" edge="1">
          <mxGeometry width="50" height="50" relative="1" as="geometry">
            <mxPoint x="240" y="200" as="sourcePoint" />
            <mxPoint x="460" y="200" as="targetPoint" />
          </mxGeometry>
        </mxCell>
        <mxCell id="Za9v6x2wVgbu6E6E0Tvg-3" value="" style="endArrow=classic;html=1;rounded=0;fontSize=13;entryX=0.25;entryY=0;entryDx=0;entryDy=0;" parent="1" target="1QQwhmRii5E-s2BLmxwo-18" edge="1">
          <mxGeometry width="50" height="50" relative="1" as="geometry">
            <mxPoint x="240" y="238" as="sourcePoint" />
            <mxPoint x="660" y="240" as="targetPoint" />
          </mxGeometry>
        </mxCell>
        <mxCell id="Za9v6x2wVgbu6E6E0Tvg-4" value="" style="endArrow=classic;html=1;rounded=0;fontSize=13;" parent="1" edge="1">
          <mxGeometry width="50" height="50" relative="1" as="geometry">
            <mxPoint x="240" y="280" as="sourcePoint" />
            <mxPoint x="850" y="280" as="targetPoint" />
          </mxGeometry>
        </mxCell>
        <mxCell id="Y7XFywrKpd44AJ3gx0v6-12" value="&lt;font color=&quot;#000033&quot;&gt;управлять деталями расписания тренажерного зала&lt;/font&gt;" style="edgeLabel;html=1;align=center;verticalAlign=middle;resizable=0;points=[];fontColor=#FFFFFF;" parent="Za9v6x2wVgbu6E6E0Tvg-4" vertex="1" connectable="0">
          <mxGeometry x="-0.3573" y="-4" relative="1" as="geometry">
            <mxPoint x="-53" y="6" as="offset" />
          </mxGeometry>
        </mxCell>
        <mxCell id="Za9v6x2wVgbu6E6E0Tvg-6" value="" style="endArrow=classic;html=1;rounded=0;fontSize=13;" parent="1" edge="1">
          <mxGeometry width="50" height="50" relative="1" as="geometry">
            <mxPoint x="240" y="320" as="sourcePoint" />
            <mxPoint x="1060" y="320" as="targetPoint" />
          </mxGeometry>
        </mxCell>
        <mxCell id="Za9v6x2wVgbu6E6E0Tvg-7" value="" style="endArrow=classic;html=1;rounded=0;fontSize=13;" parent="1" edge="1">
          <mxGeometry width="50" height="50" relative="1" as="geometry">
            <mxPoint x="240" y="360" as="sourcePoint" />
            <mxPoint x="1240" y="360" as="targetPoint" />
          </mxGeometry>
        </mxCell>
        <mxCell id="Za9v6x2wVgbu6E6E0Tvg-14" value="" style="endArrow=classic;html=1;rounded=0;fontSize=13;exitX=0.816;exitY=1.43;exitDx=0;exitDy=0;exitPerimeter=0;" parent="1" source="jDjbwVpOF3AYtSn6SCNv-22" edge="1">
          <mxGeometry width="50" height="50" relative="1" as="geometry">
            <mxPoint x="100" y="480" as="sourcePoint" />
            <mxPoint x="230" y="600" as="targetPoint" />
          </mxGeometry>
        </mxCell>
        <mxCell id="Za9v6x2wVgbu6E6E0Tvg-9" value="" style="rounded=0;whiteSpace=wrap;html=1;fontSize=13;rotation=-90;fillColor=#003300;" parent="1" vertex="1">
          <mxGeometry x="220.06" y="590" width="36.25" height="12.5" as="geometry" />
        </mxCell>
        <mxCell id="Za9v6x2wVgbu6E6E0Tvg-19" value="" style="endArrow=none;dashed=1;html=1;rounded=0;fontSize=13;startArrow=none;" parent="1" source="Za9v6x2wVgbu6E6E0Tvg-20" target="Za9v6x2wVgbu6E6E0Tvg-9" edge="1">
          <mxGeometry width="50" height="50" relative="1" as="geometry">
            <mxPoint x="240" y="1160" as="sourcePoint" />
            <mxPoint x="240.0049088050314" y="184.375" as="targetPoint" />
          </mxGeometry>
        </mxCell>
        <mxCell id="Za9v6x2wVgbu6E6E0Tvg-20" value="" style="rounded=0;whiteSpace=wrap;html=1;fontSize=13;rotation=-90;fillColor=#003300;" parent="1" vertex="1">
          <mxGeometry x="221.87" y="920" width="36.25" height="12.5" as="geometry" />
        </mxCell>
        <mxCell id="Za9v6x2wVgbu6E6E0Tvg-25" value="" style="endArrow=none;dashed=1;html=1;rounded=0;fontSize=13;" parent="1" target="Za9v6x2wVgbu6E6E0Tvg-20" edge="1">
          <mxGeometry width="50" height="50" relative="1" as="geometry">
            <mxPoint x="240" y="1060" as="sourcePoint" />
            <mxPoint x="239.99515263157878" y="584.375" as="targetPoint" />
          </mxGeometry>
        </mxCell>
        <mxCell id="Za9v6x2wVgbu6E6E0Tvg-28" value="" style="rounded=0;whiteSpace=wrap;html=1;fontSize=13;rotation=-90;fillColor=#003300;" parent="1" vertex="1">
          <mxGeometry x="2.73" y="978.21" width="149.53" height="10" as="geometry" />
        </mxCell>
        <mxCell id="1QQwhmRii5E-s2BLmxwo-1" value="" style="rounded=0;whiteSpace=wrap;html=1;fontSize=13;rotation=-90;fillColor=#003300;" parent="1" vertex="1">
          <mxGeometry x="454.77" y="184.77" width="30" height="12.5" as="geometry" />
        </mxCell>
        <mxCell id="1QQwhmRii5E-s2BLmxwo-9" value="" style="endArrow=classic;html=1;rounded=0;fontSize=13;exitX=0.927;exitY=1;exitDx=0;exitDy=0;exitPerimeter=0;" parent="1" edge="1">
          <mxGeometry x="0.0589" width="50" height="50" relative="1" as="geometry">
            <mxPoint x="469.9950000000001" y="130.53625" as="sourcePoint" />
            <mxPoint x="470" y="160" as="targetPoint" />
            <Array as="points">
              <mxPoint x="540" y="130" />
              <mxPoint x="540" y="160" />
            </Array>
            <mxPoint as="offset" />
          </mxGeometry>
        </mxCell>
        <mxCell id="1QQwhmRii5E-s2BLmxwo-13" value="&lt;div&gt;добавлять/редактировать&lt;/div&gt;&lt;div&gt;функции пользователя&lt;/div&gt;" style="edgeLabel;html=1;align=center;verticalAlign=middle;resizable=0;points=[];" parent="1QQwhmRii5E-s2BLmxwo-9" vertex="1" connectable="0">
          <mxGeometry x="0.4377" y="-3" relative="1" as="geometry">
            <mxPoint x="92" y="-17" as="offset" />
          </mxGeometry>
        </mxCell>
        <mxCell id="1QQwhmRii5E-s2BLmxwo-10" value="" style="endArrow=classic;html=1;rounded=0;fontSize=13;exitX=0.25;exitY=1;exitDx=0;exitDy=0;" parent="1" source="1QQwhmRii5E-s2BLmxwo-1" edge="1">
          <mxGeometry x="1" y="-91" width="50" height="50" relative="1" as="geometry">
            <mxPoint x="480" y="184" as="sourcePoint" />
            <mxPoint x="470" y="230" as="targetPoint" />
            <Array as="points">
              <mxPoint x="540" y="199" />
              <mxPoint x="540" y="230" />
            </Array>
            <mxPoint x="-90" y="81" as="offset" />
          </mxGeometry>
        </mxCell>
        <mxCell id="1QQwhmRii5E-s2BLmxwo-12" value="сохранить/обновить&lt;br&gt;&amp;nbsp;изменения" style="text;html=1;align=center;verticalAlign=middle;resizable=0;points=[];autosize=1;strokeColor=none;fillColor=none;" parent="1" vertex="1">
          <mxGeometry x="530" y="197.27" width="140" height="40" as="geometry" />
        </mxCell>
        <mxCell id="1QQwhmRii5E-s2BLmxwo-14" value="управлять разрешениями пользователей" style="text;whiteSpace=wrap;html=1;" parent="1" vertex="1">
          <mxGeometry x="264.77" y="195.63000000000002" width="220" height="40" as="geometry" />
        </mxCell>
        <mxCell id="1QQwhmRii5E-s2BLmxwo-15" value="управлять деталями участников тренажерного зала" style="text;whiteSpace=wrap;html=1;" parent="1" vertex="1">
          <mxGeometry x="250" y="235.63" width="320" height="40" as="geometry" />
        </mxCell>
        <mxCell id="1QQwhmRii5E-s2BLmxwo-18" value="" style="rounded=0;whiteSpace=wrap;html=1;fontSize=13;rotation=-90;fillColor=#003300;" parent="1" vertex="1">
          <mxGeometry x="685" y="224.77" width="29.54" height="12.5" as="geometry" />
        </mxCell>
        <mxCell id="1QQwhmRii5E-s2BLmxwo-19" value="" style="endArrow=none;dashed=1;html=1;rounded=0;fontSize=13;" parent="1" target="1QQwhmRii5E-s2BLmxwo-18" edge="1">
          <mxGeometry width="50" height="50" relative="1" as="geometry">
            <mxPoint x="700" y="1060" as="sourcePoint" />
            <mxPoint x="700" y="110" as="targetPoint" />
          </mxGeometry>
        </mxCell>
        <mxCell id="1QQwhmRii5E-s2BLmxwo-20" value="добавлять/редактировать&lt;br&gt;&amp;nbsp;участников" style="text;whiteSpace=wrap;html=1;" parent="1" vertex="1">
          <mxGeometry x="770" y="120" width="90" height="40" as="geometry" />
        </mxCell>
        <mxCell id="1QQwhmRii5E-s2BLmxwo-21" value="сохранить/обновить участников" style="text;whiteSpace=wrap;html=1;" parent="1" vertex="1">
          <mxGeometry x="770" y="171.02" width="90" height="40" as="geometry" />
        </mxCell>
        <mxCell id="1QQwhmRii5E-s2BLmxwo-24" value="" style="endArrow=classic;html=1;rounded=0;fontSize=13;" parent="1" edge="1">
          <mxGeometry x="1" y="-91" width="50" height="50" relative="1" as="geometry">
            <mxPoint x="700" y="130" as="sourcePoint" />
            <mxPoint x="700" y="161.48000000000002" as="targetPoint" />
            <Array as="points">
              <mxPoint x="770" y="130.48000000000002" />
              <mxPoint x="770" y="161.48000000000002" />
            </Array>
            <mxPoint x="-90" y="81" as="offset" />
          </mxGeometry>
        </mxCell>
        <mxCell id="1QQwhmRii5E-s2BLmxwo-27" value="" style="endArrow=classic;html=1;rounded=0;fontSize=13;" parent="1" edge="1">
          <mxGeometry x="1" y="-91" width="50" height="50" relative="1" as="geometry">
            <mxPoint x="700" y="175.28" as="sourcePoint" />
            <mxPoint x="700" y="206.76000000000002" as="targetPoint" />
            <Array as="points">
              <mxPoint x="770" y="175.76000000000002" />
              <mxPoint x="770" y="206.76000000000002" />
            </Array>
            <mxPoint x="-90" y="81" as="offset" />
          </mxGeometry>
        </mxCell>
        <mxCell id="1QQwhmRii5E-s2BLmxwo-28" value="" style="endArrow=classic;html=1;rounded=0;fontSize=13;exitX=0.25;exitY=1;exitDx=0;exitDy=0;" parent="1" edge="1">
          <mxGeometry x="1" y="-91" width="50" height="50" relative="1" as="geometry">
            <mxPoint x="706.02" y="237.26999999999998" as="sourcePoint" />
            <mxPoint x="700" y="268.75" as="targetPoint" />
            <Array as="points">
              <mxPoint x="770" y="237.75" />
              <mxPoint x="770" y="268.75" />
            </Array>
            <mxPoint x="-90" y="81" as="offset" />
          </mxGeometry>
        </mxCell>
        <mxCell id="1QQwhmRii5E-s2BLmxwo-29" value="список/удалить участников" style="text;whiteSpace=wrap;html=1;" parent="1" vertex="1">
          <mxGeometry x="770" y="224.77" width="70" height="40" as="geometry" />
        </mxCell>
        <mxCell id="4wAL9OcQmNZTOOHdofil-1" value="" style="endArrow=classic;html=1;rounded=0;fontSize=13;" parent="1" edge="1">
          <mxGeometry x="1" y="-91" width="50" height="50" relative="1" as="geometry">
            <mxPoint x="860" y="128.52" as="sourcePoint" />
            <mxPoint x="860" y="160.00000000000003" as="targetPoint" />
            <Array as="points">
              <mxPoint x="930" y="129.00000000000003" />
              <mxPoint x="930" y="160.00000000000003" />
            </Array>
            <mxPoint x="-90" y="81" as="offset" />
          </mxGeometry>
        </mxCell>
        <mxCell id="4wAL9OcQmNZTOOHdofil-2" value="" style="endArrow=classic;html=1;rounded=0;fontSize=13;" parent="1" edge="1">
          <mxGeometry x="1" y="-91" width="50" height="50" relative="1" as="geometry">
            <mxPoint x="860" y="175.28" as="sourcePoint" />
            <mxPoint x="860" y="206.76000000000002" as="targetPoint" />
            <Array as="points">
              <mxPoint x="930" y="175.76000000000002" />
              <mxPoint x="930" y="206.76000000000002" />
            </Array>
            <mxPoint x="-90" y="81" as="offset" />
          </mxGeometry>
        </mxCell>
        <mxCell id="4wAL9OcQmNZTOOHdofil-3" value="" style="endArrow=classic;html=1;rounded=0;fontSize=13;" parent="1" edge="1">
          <mxGeometry x="1" y="-91" width="50" height="50" relative="1" as="geometry">
            <mxPoint x="1070" y="317.27" as="sourcePoint" />
            <mxPoint x="1060" y="340" as="targetPoint" />
            <Array as="points">
              <mxPoint x="1130" y="318" />
              <mxPoint x="1130" y="340" />
              <mxPoint x="1100" y="340" />
            </Array>
            <mxPoint x="-90" y="81" as="offset" />
          </mxGeometry>
        </mxCell>
        <mxCell id="4wAL9OcQmNZTOOHdofil-4" value="добавлять/редактировать&lt;br&gt;&amp;nbsp;рсаписаний" style="text;whiteSpace=wrap;html=1;" parent="1" vertex="1">
          <mxGeometry x="930" y="120" width="90" height="40" as="geometry" />
        </mxCell>
        <mxCell id="4wAL9OcQmNZTOOHdofil-5" value="сохранить/обновить расписаний" style="text;whiteSpace=wrap;html=1;" parent="1" vertex="1">
          <mxGeometry x="930" y="171.02" width="90" height="40" as="geometry" />
        </mxCell>
        <mxCell id="4wAL9OcQmNZTOOHdofil-6" value="список/удалить расписаний" style="text;whiteSpace=wrap;html=1;" parent="1" vertex="1">
          <mxGeometry x="940" y="264.77" width="70" height="40" as="geometry" />
        </mxCell>
        <mxCell id="4wAL9OcQmNZTOOHdofil-16" value="" style="rounded=0;whiteSpace=wrap;html=1;fontSize=13;rotation=-90;fillColor=#003300;" parent="1" vertex="1">
          <mxGeometry x="840" y="264.77" width="29.54" height="12.5" as="geometry" />
        </mxCell>
        <mxCell id="4wAL9OcQmNZTOOHdofil-22" value="" style="endArrow=classic;html=1;rounded=0;fontSize=13;" parent="1" edge="1">
          <mxGeometry x="1" y="-91" width="50" height="50" relative="1" as="geometry">
            <mxPoint x="1060" y="128.51999999999998" as="sourcePoint" />
            <mxPoint x="1060" y="160" as="targetPoint" />
            <Array as="points">
              <mxPoint x="1130" y="129.00000000000003" />
              <mxPoint x="1130" y="160.00000000000003" />
            </Array>
            <mxPoint x="-90" y="81" as="offset" />
          </mxGeometry>
        </mxCell>
        <mxCell id="4wAL9OcQmNZTOOHdofil-23" value="добавлять/редактировать&lt;br&gt;&amp;nbsp;тренеров" style="text;whiteSpace=wrap;html=1;" parent="1" vertex="1">
          <mxGeometry x="1130" y="120" width="90" height="40" as="geometry" />
        </mxCell>
        <mxCell id="4wAL9OcQmNZTOOHdofil-24" value="" style="endArrow=classic;html=1;rounded=0;fontSize=13;" parent="1" edge="1">
          <mxGeometry x="1" y="-91" width="50" height="50" relative="1" as="geometry">
            <mxPoint x="1060" y="175.27999999999997" as="sourcePoint" />
            <mxPoint x="1060" y="206.76" as="targetPoint" />
            <Array as="points">
              <mxPoint x="1130" y="175.76000000000002" />
              <mxPoint x="1130" y="206.76000000000002" />
            </Array>
            <mxPoint x="-90" y="81" as="offset" />
          </mxGeometry>
        </mxCell>
        <mxCell id="4wAL9OcQmNZTOOHdofil-25" value="сохранить/обновить тренеров" style="text;whiteSpace=wrap;html=1;" parent="1" vertex="1">
          <mxGeometry x="1130" y="171.02" width="90" height="40" as="geometry" />
        </mxCell>
        <mxCell id="4wAL9OcQmNZTOOHdofil-26" value="" style="rounded=0;whiteSpace=wrap;html=1;fontSize=13;rotation=-90;fillColor=#003300;" parent="1" vertex="1">
          <mxGeometry x="1050" y="304.77" width="29.54" height="12.5" as="geometry" />
        </mxCell>
        <mxCell id="4wAL9OcQmNZTOOHdofil-27" value="" style="endArrow=classic;html=1;rounded=0;fontSize=13;" parent="1" edge="1">
          <mxGeometry x="1" y="-91" width="50" height="50" relative="1" as="geometry">
            <mxPoint x="860" y="277.27" as="sourcePoint" />
            <mxPoint x="860" y="308.75" as="targetPoint" />
            <Array as="points">
              <mxPoint x="930" y="277.75" />
              <mxPoint x="930" y="308.75" />
            </Array>
            <mxPoint x="-90" y="81" as="offset" />
          </mxGeometry>
        </mxCell>
        <mxCell id="4wAL9OcQmNZTOOHdofil-28" value="список/удалить тренеров" style="text;whiteSpace=wrap;html=1;" parent="1" vertex="1">
          <mxGeometry x="1130" y="277.82" width="70" height="40" as="geometry" />
        </mxCell>
        <mxCell id="Y7XFywrKpd44AJ3gx0v6-2" value="" style="endArrow=classic;html=1;rounded=0;fontSize=13;" parent="1" edge="1">
          <mxGeometry x="1" y="-91" width="50" height="50" relative="1" as="geometry">
            <mxPoint x="1240" y="128.51999999999998" as="sourcePoint" />
            <mxPoint x="1240" y="160" as="targetPoint" />
            <Array as="points">
              <mxPoint x="1310" y="129.00000000000003" />
              <mxPoint x="1310" y="160.00000000000003" />
            </Array>
            <mxPoint x="-90" y="81" as="offset" />
          </mxGeometry>
        </mxCell>
        <mxCell id="Y7XFywrKpd44AJ3gx0v6-3" value="" style="endArrow=classic;html=1;rounded=0;fontSize=13;" parent="1" edge="1">
          <mxGeometry x="1" y="-91" width="50" height="50" relative="1" as="geometry">
            <mxPoint x="1240" y="179.54" as="sourcePoint" />
            <mxPoint x="1240" y="211.02" as="targetPoint" />
            <Array as="points">
              <mxPoint x="1310" y="180.02000000000004" />
              <mxPoint x="1310" y="211.02000000000004" />
            </Array>
            <mxPoint x="-90" y="81" as="offset" />
          </mxGeometry>
        </mxCell>
        <mxCell id="Y7XFywrKpd44AJ3gx0v6-4" value="сохранить/обновить функций система" style="text;whiteSpace=wrap;html=1;" parent="1" vertex="1">
          <mxGeometry x="1310" y="171.02" width="100" height="40" as="geometry" />
        </mxCell>
        <mxCell id="Y7XFywrKpd44AJ3gx0v6-5" value="добавлять/редактировать функций система&lt;br&gt;&amp;nbsp;" style="text;whiteSpace=wrap;html=1;" parent="1" vertex="1">
          <mxGeometry x="1310" y="120" width="100" height="40" as="geometry" />
        </mxCell>
        <mxCell id="Y7XFywrKpd44AJ3gx0v6-7" value="" style="endArrow=classic;html=1;rounded=0;fontSize=13;" parent="1" edge="1">
          <mxGeometry x="1" y="-91" width="50" height="50" relative="1" as="geometry">
            <mxPoint x="1245" y="446.77" as="sourcePoint" />
            <mxPoint x="1245" y="470" as="targetPoint" />
            <Array as="points">
              <mxPoint x="1305" y="447.5" />
              <mxPoint x="1305" y="469.5" />
            </Array>
            <mxPoint x="-90" y="81" as="offset" />
          </mxGeometry>
        </mxCell>
        <mxCell id="Y7XFywrKpd44AJ3gx0v6-8" value="список/удалить функций система" style="text;whiteSpace=wrap;html=1;" parent="1" vertex="1">
          <mxGeometry x="1310" y="435" width="100" height="40" as="geometry" />
        </mxCell>
        <mxCell id="Y7XFywrKpd44AJ3gx0v6-14" value="" style="endArrow=classic;html=1;rounded=0;fontSize=13;" parent="1" edge="1">
          <mxGeometry x="1" y="-91" width="50" height="50" relative="1" as="geometry">
            <mxPoint x="1440" y="128.51999999999998" as="sourcePoint" />
            <mxPoint x="1440" y="160" as="targetPoint" />
            <Array as="points">
              <mxPoint x="1510" y="129.00000000000003" />
              <mxPoint x="1510" y="160.00000000000003" />
            </Array>
            <mxPoint x="-90" y="81" as="offset" />
          </mxGeometry>
        </mxCell>
        <mxCell id="Y7XFywrKpd44AJ3gx0v6-15" value="добавлять/редактировать платежи система&lt;br&gt;&amp;nbsp;" style="text;whiteSpace=wrap;html=1;" parent="1" vertex="1">
          <mxGeometry x="1520" y="110" width="100" height="40" as="geometry" />
        </mxCell>
        <mxCell id="Y7XFywrKpd44AJ3gx0v6-17" value="" style="endArrow=classic;html=1;rounded=0;fontSize=13;" parent="1" edge="1">
          <mxGeometry x="1" y="-91" width="50" height="50" relative="1" as="geometry">
            <mxPoint x="1440" y="179.53999999999996" as="sourcePoint" />
            <mxPoint x="1440" y="211.01999999999998" as="targetPoint" />
            <Array as="points">
              <mxPoint x="1510" y="180.02000000000004" />
              <mxPoint x="1510" y="211.02000000000004" />
            </Array>
            <mxPoint x="-90" y="81" as="offset" />
          </mxGeometry>
        </mxCell>
        <mxCell id="Y7XFywrKpd44AJ3gx0v6-18" value="сохранить/обновить платежи система" style="text;whiteSpace=wrap;html=1;" parent="1" vertex="1">
          <mxGeometry x="1510" y="171.02" width="100" height="40" as="geometry" />
        </mxCell>
        <mxCell id="Y7XFywrKpd44AJ3gx0v6-19" value="" style="rounded=0;whiteSpace=wrap;html=1;fontSize=13;rotation=-90;fillColor=#003300;" parent="1" vertex="1">
          <mxGeometry x="1425.23" y="403.75" width="29.54" height="12.5" as="geometry" />
        </mxCell>
        <mxCell id="Y7XFywrKpd44AJ3gx0v6-24" value="" style="endArrow=classic;html=1;rounded=0;fontSize=13;exitX=0.5;exitY=1;exitDx=0;exitDy=0;" parent="1" source="Y7XFywrKpd44AJ3gx0v6-19" edge="1">
          <mxGeometry x="1" y="-91" width="50" height="50" relative="1" as="geometry">
            <mxPoint x="1450" y="397.27" as="sourcePoint" />
            <mxPoint x="1440" y="429" as="targetPoint" />
            <Array as="points">
              <mxPoint x="1510" y="411" />
              <mxPoint x="1510" y="420" />
              <mxPoint x="1510" y="430" />
            </Array>
            <mxPoint x="-90" y="81" as="offset" />
          </mxGeometry>
        </mxCell>
        <mxCell id="Y7XFywrKpd44AJ3gx0v6-25" value="список/удалить платежи система" style="text;whiteSpace=wrap;html=1;" parent="1" vertex="1">
          <mxGeometry x="1510" y="403.75" width="100" height="40" as="geometry" />
        </mxCell>
        <mxCell id="Y7XFywrKpd44AJ3gx0v6-26" value="" style="endArrow=classic;html=1;rounded=0;fontSize=13;startArrow=none;" parent="1" source="Y7XFywrKpd44AJ3gx0v6-36" edge="1">
          <mxGeometry width="50" height="50" relative="1" as="geometry">
            <mxPoint x="240" y="640" as="sourcePoint" />
            <mxPoint x="700" y="640" as="targetPoint" />
          </mxGeometry>
        </mxCell>
        <mxCell id="Y7XFywrKpd44AJ3gx0v6-27" value="" style="endArrow=classic;html=1;rounded=0;fontSize=13;" parent="1" edge="1">
          <mxGeometry width="50" height="50" relative="1" as="geometry">
            <mxPoint x="240" y="680" as="sourcePoint" />
            <mxPoint x="860" y="680" as="targetPoint" />
          </mxGeometry>
        </mxCell>
        <mxCell id="Y7XFywrKpd44AJ3gx0v6-28" value="" style="endArrow=classic;html=1;rounded=0;fontSize=13;" parent="1" edge="1">
          <mxGeometry width="50" height="50" relative="1" as="geometry">
            <mxPoint x="240" y="720" as="sourcePoint" />
            <mxPoint x="1240" y="720" as="targetPoint" />
          </mxGeometry>
        </mxCell>
        <mxCell id="Y7XFywrKpd44AJ3gx0v6-34" value="" style="endArrow=classic;html=1;rounded=0;fontSize=13;exitX=0.927;exitY=1;exitDx=0;exitDy=0;exitPerimeter=0;" parent="1" edge="1">
          <mxGeometry x="0.0589" width="50" height="50" relative="1" as="geometry">
            <mxPoint x="470.0050000000001" y="490.53625" as="sourcePoint" />
            <mxPoint x="470.01" y="520" as="targetPoint" />
            <Array as="points">
              <mxPoint x="540.01" y="490" />
              <mxPoint x="540.01" y="520" />
            </Array>
            <mxPoint as="offset" />
          </mxGeometry>
        </mxCell>
        <mxCell id="Y7XFywrKpd44AJ3gx0v6-35" value="список/удалить пользователя" style="edgeLabel;html=1;align=center;verticalAlign=middle;resizable=0;points=[];" parent="Y7XFywrKpd44AJ3gx0v6-34" vertex="1" connectable="0">
          <mxGeometry x="0.4377" y="-3" relative="1" as="geometry">
            <mxPoint x="-8" y="15" as="offset" />
          </mxGeometry>
        </mxCell>
        <mxCell id="Y7XFywrKpd44AJ3gx0v6-36" value="" style="rounded=0;whiteSpace=wrap;html=1;fontSize=13;rotation=-90;fillColor=#003300;" parent="1" vertex="1">
          <mxGeometry x="685" y="630" width="29.54" height="12.5" as="geometry" />
        </mxCell>
        <mxCell id="Y7XFywrKpd44AJ3gx0v6-39" value="" style="endArrow=classic;html=1;rounded=0;fontSize=13;" parent="1" edge="1">
          <mxGeometry width="50" height="50" relative="1" as="geometry">
            <mxPoint x="240" y="640" as="sourcePoint" />
            <mxPoint x="690" y="640" as="targetPoint" />
          </mxGeometry>
        </mxCell>
        <mxCell id="Y7XFywrKpd44AJ3gx0v6-40" value="проверить/сделать отчет о посещаемости" style="text;whiteSpace=wrap;html=1;fontColor=#000033;" parent="1" vertex="1">
          <mxGeometry x="770" y="530" width="80" height="40" as="geometry" />
        </mxCell>
        <mxCell id="Y7XFywrKpd44AJ3gx0v6-41" value="" style="endArrow=classic;html=1;rounded=0;fontSize=13;" parent="1" edge="1">
          <mxGeometry x="1" y="-91" width="50" height="50" relative="1" as="geometry">
            <mxPoint x="700" y="548.52" as="sourcePoint" />
            <mxPoint x="700" y="580" as="targetPoint" />
            <Array as="points">
              <mxPoint x="770" y="549" />
              <mxPoint x="770" y="580" />
            </Array>
            <mxPoint x="-90" y="81" as="offset" />
          </mxGeometry>
        </mxCell>
        <mxCell id="Y7XFywrKpd44AJ3gx0v6-42" value="" style="endArrow=classic;html=1;rounded=0;fontSize=13;" parent="1" edge="1">
          <mxGeometry x="1" y="-91" width="50" height="50" relative="1" as="geometry">
            <mxPoint x="700" y="641.02" as="sourcePoint" />
            <mxPoint x="700" y="672.5" as="targetPoint" />
            <Array as="points">
              <mxPoint x="770" y="641.5" />
              <mxPoint x="770" y="672.5" />
            </Array>
            <mxPoint x="-90" y="81" as="offset" />
          </mxGeometry>
        </mxCell>
        <mxCell id="Y7XFywrKpd44AJ3gx0v6-44" value="руководить/ поддерживать по обучению" style="text;whiteSpace=wrap;html=1;fontColor=#000033;" parent="1" vertex="1">
          <mxGeometry x="770" y="620" width="80" height="40" as="geometry" />
        </mxCell>
        <mxCell id="Y7XFywrKpd44AJ3gx0v6-45" value="" style="rounded=0;whiteSpace=wrap;html=1;fontSize=13;rotation=-90;fillColor=#003300;" parent="1" vertex="1">
          <mxGeometry x="850" y="670" width="29.54" height="12.5" as="geometry" />
        </mxCell>
        <mxCell id="Y7XFywrKpd44AJ3gx0v6-47" value="управлять / разрабатывать фитнес-класс" style="text;whiteSpace=wrap;html=1;fontColor=#000033;" parent="1" vertex="1">
          <mxGeometry x="940" y="530" width="80" height="40" as="geometry" />
        </mxCell>
        <mxCell id="Y7XFywrKpd44AJ3gx0v6-48" value="" style="endArrow=classic;html=1;rounded=0;fontSize=13;" parent="1" edge="1">
          <mxGeometry x="1" y="-91" width="50" height="50" relative="1" as="geometry">
            <mxPoint x="860" y="548.52" as="sourcePoint" />
            <mxPoint x="860" y="580" as="targetPoint" />
            <Array as="points">
              <mxPoint x="930" y="549" />
              <mxPoint x="930" y="580" />
            </Array>
            <mxPoint x="-90" y="81" as="offset" />
          </mxGeometry>
        </mxCell>
        <mxCell id="Y7XFywrKpd44AJ3gx0v6-49" value="" style="endArrow=classic;html=1;rounded=0;fontSize=13;" parent="1" edge="1">
          <mxGeometry x="1" y="-91" width="50" height="50" relative="1" as="geometry">
            <mxPoint x="860" y="682.5" as="sourcePoint" />
            <mxPoint x="860" y="700" as="targetPoint" />
            <Array as="points">
              <mxPoint x="930" y="682.98" />
              <mxPoint x="930" y="700" />
            </Array>
            <mxPoint x="-90" y="81" as="offset" />
          </mxGeometry>
        </mxCell>
        <mxCell id="Y7XFywrKpd44AJ3gx0v6-51" value="&lt;font color=&quot;#000033&quot;&gt;управлять деталями тренеров&lt;/font&gt;" style="edgeLabel;html=1;align=center;verticalAlign=middle;resizable=0;points=[];fontColor=#FFFFFF;" parent="1" vertex="1" connectable="0">
          <mxGeometry x="320" y="284.77" as="geometry">
            <mxPoint x="2" y="47" as="offset" />
          </mxGeometry>
        </mxCell>
        <mxCell id="Y7XFywrKpd44AJ3gx0v6-52" value="&lt;font color=&quot;#000033&quot;&gt;управлять деталями использования функций система&lt;/font&gt;" style="edgeLabel;html=1;align=center;verticalAlign=middle;resizable=0;points=[];fontColor=#FFFFFF;" parent="1" vertex="1" connectable="0">
          <mxGeometry x="390" y="370" as="geometry" />
        </mxCell>
        <mxCell id="Y7XFywrKpd44AJ3gx0v6-54" value="" style="endArrow=classic;html=1;rounded=0;fontSize=13;" parent="1" edge="1">
          <mxGeometry x="1" y="-91" width="50" height="50" relative="1" as="geometry">
            <mxPoint x="1240" y="550" as="sourcePoint" />
            <mxPoint x="1240" y="581.48" as="targetPoint" />
            <Array as="points">
              <mxPoint x="1310" y="550.48" />
              <mxPoint x="1310" y="581.48" />
            </Array>
            <mxPoint x="-90" y="81" as="offset" />
          </mxGeometry>
        </mxCell>
        <mxCell id="Y7XFywrKpd44AJ3gx0v6-55" value="управлять /&amp;nbsp;использовать функции тренажерного зала" style="text;whiteSpace=wrap;html=1;fontColor=#000033;" parent="1" vertex="1">
          <mxGeometry x="1320" y="530" width="120" height="40" as="geometry" />
        </mxCell>
        <mxCell id="Y7XFywrKpd44AJ3gx0v6-56" value="" style="rounded=0;whiteSpace=wrap;html=1;fontSize=13;rotation=-90;fillColor=#003300;" parent="1" vertex="1">
          <mxGeometry x="1234.77" y="714.77" width="20" height="12.5" as="geometry" />
        </mxCell>
        <mxCell id="Y7XFywrKpd44AJ3gx0v6-57" value="" style="endArrow=classic;html=1;rounded=0;fontSize=13;" parent="1" edge="1">
          <mxGeometry x="1" y="-91" width="50" height="50" relative="1" as="geometry">
            <mxPoint x="1240" y="810" as="sourcePoint" />
            <mxPoint x="1240" y="831.48" as="targetPoint" />
            <Array as="points">
              <mxPoint x="1310" y="810" />
              <mxPoint x="1310" y="831.48" />
            </Array>
            <mxPoint x="-90" y="81" as="offset" />
          </mxGeometry>
        </mxCell>
        <mxCell id="Y7XFywrKpd44AJ3gx0v6-59" value="" style="rounded=0;whiteSpace=wrap;html=1;fontSize=13;rotation=-90;fillColor=#003300;" parent="1" vertex="1">
          <mxGeometry x="1430" y="750" width="29.54" height="12.5" as="geometry" />
        </mxCell>
        <mxCell id="Y7XFywrKpd44AJ3gx0v6-60" value="" style="endArrow=classic;html=1;rounded=0;fontSize=13;" parent="1" edge="1">
          <mxGeometry x="1" y="-91" width="50" height="50" relative="1" as="geometry">
            <mxPoint x="1450" y="762.5" as="sourcePoint" />
            <mxPoint x="1440" y="780" as="targetPoint" />
            <Array as="points">
              <mxPoint x="1510" y="763" />
              <mxPoint x="1510" y="780" />
            </Array>
            <mxPoint x="-90" y="81" as="offset" />
          </mxGeometry>
        </mxCell>
        <mxCell id="Y7XFywrKpd44AJ3gx0v6-61" value="" style="endArrow=classic;html=1;rounded=0;fontSize=13;" parent="1" edge="1">
          <mxGeometry x="1" y="-91" width="50" height="50" relative="1" as="geometry">
            <mxPoint x="1440" y="548.52" as="sourcePoint" />
            <mxPoint x="1440" y="580" as="targetPoint" />
            <Array as="points">
              <mxPoint x="1510" y="549" />
              <mxPoint x="1510" y="580" />
            </Array>
            <mxPoint x="-90" y="81" as="offset" />
          </mxGeometry>
        </mxCell>
        <mxCell id="Y7XFywrKpd44AJ3gx0v6-63" value="изменить/сделать отчет&amp;nbsp;о расписании тренажерного зала" style="text;whiteSpace=wrap;html=1;fontColor=#000033;" parent="1" vertex="1">
          <mxGeometry x="930" y="657.5" width="140" height="40" as="geometry" />
        </mxCell>
        <mxCell id="Y7XFywrKpd44AJ3gx0v6-68" value="управлять /&amp;nbsp;использовать функции платежи система" style="text;whiteSpace=wrap;html=1;fontColor=#000033;" parent="1" vertex="1">
          <mxGeometry x="1520" y="530" width="120" height="40" as="geometry" />
        </mxCell>
        <mxCell id="Y7XFywrKpd44AJ3gx0v6-71" value="" style="endArrow=classic;html=1;rounded=0;fontSize=13;" parent="1" edge="1">
          <mxGeometry width="50" height="50" relative="1" as="geometry">
            <mxPoint x="240" y="960" as="sourcePoint" />
            <mxPoint x="1240" y="960" as="targetPoint" />
          </mxGeometry>
        </mxCell>
        <mxCell id="pRBjfu1V_BB3vKHWgvX9-1" value="комментарии/отзывы о функционале системы" style="text;whiteSpace=wrap;html=1;fontColor=#000033;" parent="1" vertex="1">
          <mxGeometry x="1310" y="800" width="120" height="40" as="geometry" />
        </mxCell>
        <mxCell id="pRBjfu1V_BB3vKHWgvX9-2" value="&lt;span style=&quot;font-size: 11px; text-align: center; background-color: rgb(255, 255, 255);&quot;&gt;управлять деталями платежи сисстема&lt;/span&gt;" style="text;whiteSpace=wrap;html=1;fontColor=#000033;" parent="1" vertex="1">
          <mxGeometry x="1520" y="750" width="120" height="40" as="geometry" />
        </mxCell>
        <mxCell id="_WdXzB-JxFPdFwKamEiW-1" value="&lt;font color=&quot;#000033&quot;&gt;управлять деталями расписания тренажерного зала&lt;/font&gt;" style="edgeLabel;html=1;align=center;verticalAlign=middle;resizable=0;points=[];fontColor=#FFFFFF;" parent="1" vertex="1" connectable="0">
          <mxGeometry x="374.77" y="690" as="geometry" />
        </mxCell>
        <mxCell id="_WdXzB-JxFPdFwKamEiW-2" value="управлять деталями участников тренажерного зала" style="text;whiteSpace=wrap;html=1;" parent="1" vertex="1">
          <mxGeometry x="240" y="632.5" width="320" height="40" as="geometry" />
        </mxCell>
        <mxCell id="_WdXzB-JxFPdFwKamEiW-3" value="&lt;font color=&quot;#000033&quot;&gt;управлять деталями использования функций система&lt;/font&gt;" style="edgeLabel;html=1;align=center;verticalAlign=middle;resizable=0;points=[];fontColor=#FFFFFF;" parent="1" vertex="1" connectable="0">
          <mxGeometry x="380" y="730" as="geometry" />
        </mxCell>
        <mxCell id="_WdXzB-JxFPdFwKamEiW-5" value="&lt;font color=&quot;#000033&quot;&gt;управлять деталями использования функций система&lt;/font&gt;" style="edgeLabel;html=1;align=center;verticalAlign=middle;resizable=0;points=[];fontColor=#FFFFFF;" parent="1" vertex="1" connectable="0">
          <mxGeometry x="380" y="970" as="geometry" />
        </mxCell>
        <mxCell id="_WdXzB-JxFPdFwKamEiW-7" style="edgeStyle=orthogonalEdgeStyle;rounded=0;orthogonalLoop=1;jettySize=auto;html=1;exitX=0.75;exitY=1;exitDx=0;exitDy=0;entryX=1;entryY=0.5;entryDx=0;entryDy=0;fontColor=#000033;" parent="1" source="Y7XFywrKpd44AJ3gx0v6-56" target="Y7XFywrKpd44AJ3gx0v6-56" edge="1">
          <mxGeometry relative="1" as="geometry" />
        </mxCell>
        <mxCell id="_WdXzB-JxFPdFwKamEiW-9" value="" style="rounded=0;whiteSpace=wrap;html=1;fontSize=13;rotation=-90;fillColor=#003300;" parent="1" vertex="1">
          <mxGeometry x="1230" y="950" width="29.54" height="12.5" as="geometry" />
        </mxCell>
        <mxCell id="_WdXzB-JxFPdFwKamEiW-10" value="" style="endArrow=none;dashed=1;html=1;rounded=0;fontSize=13;" parent="1" target="_WdXzB-JxFPdFwKamEiW-9" edge="1">
          <mxGeometry width="50" height="50" relative="1" as="geometry">
            <mxPoint x="1245" y="1060" as="sourcePoint" />
            <mxPoint x="1239.5" y="105" as="targetPoint" />
          </mxGeometry>
        </mxCell>
        <mxCell id="_WdXzB-JxFPdFwKamEiW-11" value="" style="rounded=0;whiteSpace=wrap;html=1;fontSize=13;rotation=-90;fillColor=#003300;" parent="1" vertex="1">
          <mxGeometry x="1430" y="988.21" width="29.54" height="12.5" as="geometry" />
        </mxCell>
        <mxCell id="_WdXzB-JxFPdFwKamEiW-12" value="" style="endArrow=classic;html=1;rounded=0;fontSize=13;" parent="1" edge="1">
          <mxGeometry x="1" y="-91" width="50" height="50" relative="1" as="geometry">
            <mxPoint x="1240" y="912.5" as="sourcePoint" />
            <mxPoint x="1240" y="932.5" as="targetPoint" />
            <Array as="points">
              <mxPoint x="1310" y="912.98" />
              <mxPoint x="1310" y="932.5" />
            </Array>
            <mxPoint x="-90" y="81" as="offset" />
          </mxGeometry>
        </mxCell>
        <mxCell id="_WdXzB-JxFPdFwKamEiW-13" value="управлять /&amp;nbsp;использовать функции тренажерного зала" style="text;whiteSpace=wrap;html=1;fontColor=#000033;" parent="1" vertex="1">
          <mxGeometry x="1310" y="870" width="120" height="40" as="geometry" />
        </mxCell>
        <mxCell id="_WdXzB-JxFPdFwKamEiW-14" value="" style="endArrow=classic;html=1;rounded=0;fontSize=13;" parent="1" edge="1">
          <mxGeometry x="1" y="-91" width="50" height="50" relative="1" as="geometry">
            <mxPoint x="1250" y="1040" as="sourcePoint" />
            <mxPoint x="1240" y="1071.27" as="targetPoint" />
            <Array as="points">
              <mxPoint x="1320" y="1040.48" />
              <mxPoint x="1320" y="1071.48" />
            </Array>
            <mxPoint x="-90" y="81" as="offset" />
          </mxGeometry>
        </mxCell>
        <mxCell id="_WdXzB-JxFPdFwKamEiW-15" value="комментарии/отзывы о функционале системы" style="text;whiteSpace=wrap;html=1;fontColor=#000033;" parent="1" vertex="1">
          <mxGeometry x="1320" y="1030" width="140" height="40" as="geometry" />
        </mxCell>
        <mxCell id="_WdXzB-JxFPdFwKamEiW-17" value="" style="endArrow=classic;html=1;rounded=0;fontSize=13;" parent="1" edge="1">
          <mxGeometry x="1" y="-91" width="50" height="50" relative="1" as="geometry">
            <mxPoint x="1440" y="916.25" as="sourcePoint" />
            <mxPoint x="1440" y="936.25" as="targetPoint" />
            <Array as="points">
              <mxPoint x="1510" y="916.73" />
              <mxPoint x="1510" y="936.25" />
            </Array>
            <mxPoint x="-90" y="81" as="offset" />
          </mxGeometry>
        </mxCell>
        <mxCell id="_WdXzB-JxFPdFwKamEiW-18" value="управлять /&amp;nbsp;использовать функции платежи система" style="text;whiteSpace=wrap;html=1;fontColor=#000033;" parent="1" vertex="1">
          <mxGeometry x="1510" y="870" width="120" height="40" as="geometry" />
        </mxCell>
        <mxCell id="_WdXzB-JxFPdFwKamEiW-19" value="управлять деталями платежи система" style="text;whiteSpace=wrap;html=1;fontColor=#000033;" parent="1" vertex="1">
          <mxGeometry x="1520" y="990" width="120" height="40" as="geometry" />
        </mxCell>
        <mxCell id="_wO8SNddBKrP8lfmHsqX-1" value="" style="endArrow=classic;html=1;rounded=0;fontSize=13;exitX=0.75;exitY=1;exitDx=0;exitDy=0;" parent="1" source="4wAL9OcQmNZTOOHdofil-16" edge="1">
          <mxGeometry width="50" height="50" relative="1" as="geometry">
            <mxPoint x="859.9950000000001" y="238.67599000000007" as="sourcePoint" />
            <mxPoint x="1060" y="264" as="targetPoint" />
          </mxGeometry>
        </mxCell>
        <mxCell id="_wO8SNddBKrP8lfmHsqX-2" value="&lt;font style=&quot;font-size: 12px;&quot;&gt;устроить тренера&lt;/font&gt;" style="text;whiteSpace=wrap;html=1;fontSize=16;" parent="1" vertex="1">
          <mxGeometry x="905" y="235.63" width="160" height="10" as="geometry" />
        </mxCell>
        <mxCell id="_2jgeTYcF6AEtsRfTPMu-1" value="" style="endArrow=classic;html=1;rounded=0;fontSize=13;exitX=0.75;exitY=1;exitDx=0;exitDy=0;" parent="1" edge="1">
          <mxGeometry width="50" height="50" relative="1" as="geometry">
            <mxPoint x="1250" y="357.8249999999999" as="sourcePoint" />
            <mxPoint x="1440" y="358.23" as="targetPoint" />
          </mxGeometry>
        </mxCell>
        <mxCell id="_2jgeTYcF6AEtsRfTPMu-2" value="Проверить платежную функцию системы" style="text;whiteSpace=wrap;html=1;fontSize=12;" parent="1" vertex="1">
          <mxGeometry x="1250" y="357.82" width="260" height="40" as="geometry" />
        </mxCell>
        <mxCell id="_2jgeTYcF6AEtsRfTPMu-3" value="" style="endArrow=classic;html=1;rounded=0;fontSize=13;" parent="1" edge="1">
          <mxGeometry width="50" height="50" relative="1" as="geometry">
            <mxPoint x="480" y="175" as="sourcePoint" />
            <mxPoint x="700" y="175" as="targetPoint" />
          </mxGeometry>
        </mxCell>
        <mxCell id="_2jgeTYcF6AEtsRfTPMu-4" value="проверить пакет файлов членства пользователя" style="text;whiteSpace=wrap;html=1;fontSize=12;" parent="1" vertex="1">
          <mxGeometry x="480" y="171.02" width="310" height="40" as="geometry" />
        </mxCell>
        <mxCell id="_2jgeTYcF6AEtsRfTPMu-5" value="" style="endArrow=classic;html=1;rounded=0;fontSize=13;exitX=0.75;exitY=1;exitDx=0;exitDy=0;" parent="1" edge="1">
          <mxGeometry width="50" height="50" relative="1" as="geometry">
            <mxPoint x="869.54" y="660.005" as="sourcePoint" />
            <mxPoint x="1240" y="660" as="targetPoint" />
          </mxGeometry>
        </mxCell>
        <mxCell id="_2jgeTYcF6AEtsRfTPMu-6" value="Использовать систему посещаемости, расстановки и планирования диеты для администратора" style="text;whiteSpace=wrap;html=1;fontSize=12;" parent="1" vertex="1">
          <mxGeometry x="919.54" y="620" width="340" height="50" as="geometry" />
        </mxCell>
        <mxCell id="b3vKAEEir_3Arbktzza3-1" value="" style="endArrow=classic;html=1;rounded=0;fontSize=13;" parent="1" edge="1">
          <mxGeometry width="50" height="50" relative="1" as="geometry">
            <mxPoint x="1250" y="960" as="sourcePoint" />
            <mxPoint x="1440" y="960" as="targetPoint" />
          </mxGeometry>
        </mxCell>
        <mxCell id="Y7XFywrKpd44AJ3gx0v6-6" value="" style="rounded=0;whiteSpace=wrap;html=1;fontSize=13;rotation=-90;fillColor=#003300;" parent="1" vertex="1">
          <mxGeometry x="1230" y="357.82" width="29.54" height="12.5" as="geometry" />
        </mxCell>
        <mxCell id="Hklf_M6kQkORzsyeGWFQ-4" value="" style="endArrow=none;dashed=1;html=1;rounded=0;fontSize=13;startArrow=none;" parent="1" source="_WdXzB-JxFPdFwKamEiW-9" target="Y7XFywrKpd44AJ3gx0v6-6" edge="1">
          <mxGeometry width="50" height="50" relative="1" as="geometry">
            <mxPoint x="1244.678560469897" y="941.4799999999998" as="sourcePoint" />
            <mxPoint x="1239.5" y="105" as="targetPoint" />
          </mxGeometry>
        </mxCell>
        <mxCell id="Hklf_M6kQkORzsyeGWFQ-1" value="alt" style="shape=umlFrame;whiteSpace=wrap;html=1;" parent="1" vertex="1">
          <mxGeometry x="170" y="345" width="1470" height="135" as="geometry" />
        </mxCell>
        <mxCell id="Hklf_M6kQkORzsyeGWFQ-12" value="" style="endArrow=none;dashed=1;html=1;dashPattern=1 3;strokeWidth=2;rounded=0;exitX=1.003;exitY=0.316;exitDx=0;exitDy=0;exitPerimeter=0;" parent="1" source="Hklf_M6kQkORzsyeGWFQ-1" edge="1">
          <mxGeometry width="50" height="50" relative="1" as="geometry">
            <mxPoint x="560" y="380" as="sourcePoint" />
            <mxPoint x="170" y="390" as="targetPoint" />
          </mxGeometry>
        </mxCell>
        <mxCell id="Hklf_M6kQkORzsyeGWFQ-17" value="" style="endArrow=none;dashed=1;html=1;dashPattern=1 3;strokeWidth=2;rounded=0;exitX=-0.001;exitY=0.697;exitDx=0;exitDy=0;exitPerimeter=0;entryX=1.006;entryY=0.684;entryDx=0;entryDy=0;entryPerimeter=0;" parent="1" source="Hklf_M6kQkORzsyeGWFQ-1" target="Hklf_M6kQkORzsyeGWFQ-1" edge="1">
          <mxGeometry width="50" height="50" relative="1" as="geometry">
            <mxPoint x="460" y="620" as="sourcePoint" />
            <mxPoint x="510" y="570" as="targetPoint" />
          </mxGeometry>
        </mxCell>
        <mxCell id="Hklf_M6kQkORzsyeGWFQ-18" value="рассмотрение функцию платежи успешно" style="text;html=1;strokeColor=none;fillColor=none;align=center;verticalAlign=middle;whiteSpace=wrap;rounded=0;" parent="1" vertex="1">
          <mxGeometry x="232.82" y="386.25" width="260" height="30" as="geometry" />
        </mxCell>
        <mxCell id="Hklf_M6kQkORzsyeGWFQ-19" value="рассмотрение функцию платежи неуспешно" style="text;html=1;strokeColor=none;fillColor=none;align=center;verticalAlign=middle;whiteSpace=wrap;rounded=0;" parent="1" vertex="1">
          <mxGeometry x="232.82" y="435" width="257.18" height="30" as="geometry" />
        </mxCell>
        <mxCell id="Hklf_M6kQkORzsyeGWFQ-20" value="alt" style="shape=umlFrame;whiteSpace=wrap;html=1;" parent="1" vertex="1">
          <mxGeometry x="180" y="705" width="1450" height="135" as="geometry" />
        </mxCell>
        <mxCell id="Hklf_M6kQkORzsyeGWFQ-25" value="" style="endArrow=classic;html=1;rounded=0;" parent="1" edge="1">
          <mxGeometry width="50" height="50" relative="1" as="geometry">
            <mxPoint x="1250" y="720" as="sourcePoint" />
            <mxPoint x="1440" y="720" as="targetPoint" />
          </mxGeometry>
        </mxCell>
        <mxCell id="Hklf_M6kQkORzsyeGWFQ-26" value="использовать функцию платежи" style="text;html=1;strokeColor=none;fillColor=none;align=center;verticalAlign=middle;whiteSpace=wrap;rounded=0;" parent="1" vertex="1">
          <mxGeometry x="1250" y="715" width="190" height="30" as="geometry" />
        </mxCell>
        <mxCell id="Hklf_M6kQkORzsyeGWFQ-29" value="" style="endArrow=none;dashed=1;html=1;dashPattern=1 3;strokeWidth=2;rounded=0;exitX=-0.002;exitY=0.277;exitDx=0;exitDy=0;exitPerimeter=0;" parent="1" source="Hklf_M6kQkORzsyeGWFQ-20" edge="1">
          <mxGeometry width="50" height="50" relative="1" as="geometry">
            <mxPoint x="460" y="570" as="sourcePoint" />
            <mxPoint x="1630" y="742" as="targetPoint" />
          </mxGeometry>
        </mxCell>
        <mxCell id="5TSG2n44t4uGnOGq_YNR-1" value="" style="endArrow=none;dashed=1;html=1;dashPattern=1 3;strokeWidth=2;rounded=0;entryX=0.001;entryY=0.601;entryDx=0;entryDy=0;entryPerimeter=0;exitX=1.002;exitY=0.643;exitDx=0;exitDy=0;exitPerimeter=0;" parent="1" source="Hklf_M6kQkORzsyeGWFQ-20" target="Hklf_M6kQkORzsyeGWFQ-20" edge="1">
          <mxGeometry width="50" height="50" relative="1" as="geometry">
            <mxPoint x="740" y="680" as="sourcePoint" />
            <mxPoint x="790" y="630" as="targetPoint" />
          </mxGeometry>
        </mxCell>
        <mxCell id="5TSG2n44t4uGnOGq_YNR-2" value="успешно использовать платежи" style="text;html=1;strokeColor=none;fillColor=none;align=center;verticalAlign=middle;whiteSpace=wrap;rounded=0;" parent="1" vertex="1">
          <mxGeometry x="200" y="745" width="290" height="30" as="geometry" />
        </mxCell>
        <mxCell id="5TSG2n44t4uGnOGq_YNR-3" value="возникать ошибку при использовании" style="text;html=1;strokeColor=none;fillColor=none;align=center;verticalAlign=middle;whiteSpace=wrap;rounded=0;" parent="1" vertex="1">
          <mxGeometry x="250" y="790" width="220" height="30" as="geometry" />
        </mxCell>
        <mxCell id="5TSG2n44t4uGnOGq_YNR-4" value="alt" style="shape=umlFrame;whiteSpace=wrap;html=1;" parent="1" vertex="1">
          <mxGeometry x="180" y="942.5" width="1460" height="135" as="geometry" />
        </mxCell>
        <mxCell id="5TSG2n44t4uGnOGq_YNR-5" value="" style="endArrow=classic;html=1;rounded=0;fontSize=13;" parent="1" edge="1">
          <mxGeometry x="1" y="-91" width="50" height="50" relative="1" as="geometry">
            <mxPoint x="1450" y="1000.71" as="sourcePoint" />
            <mxPoint x="1440" y="1020" as="targetPoint" />
            <Array as="points">
              <mxPoint x="1520" y="1001.19" />
              <mxPoint x="1520" y="1020" />
            </Array>
            <mxPoint x="-90" y="81" as="offset" />
          </mxGeometry>
        </mxCell>
        <mxCell id="5TSG2n44t4uGnOGq_YNR-6" value="использовать функцию платежи" style="text;html=1;strokeColor=none;fillColor=none;align=center;verticalAlign=middle;whiteSpace=wrap;rounded=0;" parent="1" vertex="1">
          <mxGeometry x="1234.77" y="955" width="210" height="30" as="geometry" />
        </mxCell>
        <mxCell id="5TSG2n44t4uGnOGq_YNR-7" value="" style="endArrow=none;dashed=1;html=1;dashPattern=1 3;strokeWidth=2;rounded=0;entryX=0.001;entryY=0.337;entryDx=0;entryDy=0;entryPerimeter=0;exitX=1.002;exitY=0.287;exitDx=0;exitDy=0;exitPerimeter=0;" parent="1" source="5TSG2n44t4uGnOGq_YNR-4" target="5TSG2n44t4uGnOGq_YNR-4" edge="1">
          <mxGeometry width="50" height="50" relative="1" as="geometry">
            <mxPoint x="800" y="840" as="sourcePoint" />
            <mxPoint x="850" y="790" as="targetPoint" />
          </mxGeometry>
        </mxCell>
        <mxCell id="5TSG2n44t4uGnOGq_YNR-9" value="" style="endArrow=none;dashed=1;html=1;dashPattern=1 3;strokeWidth=2;rounded=0;exitX=0.001;exitY=0.718;exitDx=0;exitDy=0;exitPerimeter=0;entryX=1;entryY=0.648;entryDx=0;entryDy=0;entryPerimeter=0;" parent="1" source="5TSG2n44t4uGnOGq_YNR-4" target="5TSG2n44t4uGnOGq_YNR-4" edge="1">
          <mxGeometry width="50" height="50" relative="1" as="geometry">
            <mxPoint x="550" y="840" as="sourcePoint" />
            <mxPoint x="890.8421566611842" y="870" as="targetPoint" />
          </mxGeometry>
        </mxCell>
        <mxCell id="5TSG2n44t4uGnOGq_YNR-10" value="успешно использовать платежи" style="text;html=1;strokeColor=none;fillColor=none;align=center;verticalAlign=middle;whiteSpace=wrap;rounded=0;" parent="1" vertex="1">
          <mxGeometry x="170" y="988.21" width="350" height="30" as="geometry" />
        </mxCell>
        <mxCell id="5TSG2n44t4uGnOGq_YNR-11" value="возникать ошибку при использовании" style="text;html=1;strokeColor=none;fillColor=none;align=center;verticalAlign=middle;whiteSpace=wrap;rounded=0;" parent="1" vertex="1">
          <mxGeometry x="240" y="1035" width="240" height="30" as="geometry" />
        </mxCell>
      </root>
    </mxGraphModel>
  </diagram>
  <diagram id="mO74gOs-D8Pf5PbIF4Y8" name="CRC-карта обьекта">
    <mxGraphModel dx="1262" dy="619" grid="1" gridSize="10" guides="1" tooltips="1" connect="1" arrows="1" fold="1" page="1" pageScale="1" pageWidth="900" pageHeight="400" math="0" shadow="0">
      <root>
        <mxCell id="0" />
        <mxCell id="1" parent="0" />
        <mxCell id="VIcqP-cVeVQAgqPRvZzL-1" value="&lt;p style=&quot;margin:0px;margin-top:4px;text-align:center;&quot;&gt;&lt;i&gt;&amp;lt;&amp;lt;CRC&amp;gt;&amp;gt;&lt;/i&gt;&lt;br&gt;&lt;b&gt;Administrator&lt;/b&gt;&lt;/p&gt;&lt;hr size=&quot;1&quot;&gt;&lt;p style=&quot;margin:0px;margin-left:4px;&quot;&gt;&lt;font style=&quot;font-size: 16px;&quot;&gt;Обязанности&lt;/font&gt;&lt;span style=&quot;background-color: initial;&quot;&gt;&amp;nbsp;&lt;/span&gt;&lt;/p&gt;&lt;p style=&quot;margin:0px;margin-left:4px;&quot;&gt;- Изменить пользовательские базы данных&amp;nbsp;&lt;/p&gt;&lt;p style=&quot;margin:0px;margin-left:4px;&quot;&gt;и разрешения&lt;/p&gt;&lt;p style=&quot;margin:0px;margin-left:4px;&quot;&gt;-&amp;nbsp;Изменить продукты для тренажерного&amp;nbsp;&lt;/p&gt;&lt;p style=&quot;margin:0px;margin-left:4px;&quot;&gt;зала&lt;br&gt;&lt;/p&gt;&lt;p style=&quot;margin:0px;margin-left:4px;&quot;&gt;- Изменить новости спортзала&lt;br&gt;&lt;/p&gt;&lt;p style=&quot;margin:0px;margin-left:4px;&quot;&gt;-&amp;nbsp;Размещать рекламу, акции, ....&lt;br&gt;&lt;/p&gt;&lt;p style=&quot;margin:0px;margin-left:4px;&quot;&gt;-Проверить активность класса&lt;/p&gt;&lt;p style=&quot;margin:0px;margin-left:4px;&quot;&gt;тренажерного зала и функцию&amp;nbsp;&lt;/p&gt;&lt;p style=&quot;margin:0px;margin-left:4px;&quot;&gt;посещаемости.&lt;/p&gt;&lt;p style=&quot;margin:0px;margin-left:4px;&quot;&gt;-Гарантировать оплаты и прибыльности&lt;/p&gt;&lt;hr size=&quot;1&quot;&gt;&lt;p style=&quot;margin:0px;margin-left:4px;&quot;&gt;&lt;font style=&quot;font-size: 16px;&quot;&gt;Сотрудничество&lt;/font&gt;&lt;br&gt;&lt;/p&gt;&lt;p style=&quot;margin:0px;margin-left:4px;&quot;&gt;- UserDB&lt;br&gt;- ProductDB&lt;/p&gt;&lt;p style=&quot;margin:0px;margin-left:4px;&quot;&gt;- SystemDB&lt;/p&gt;&lt;p style=&quot;margin:0px;margin-left:4px;&quot;&gt;- Статьи, реклама, отчеты ....&lt;/p&gt;" style="verticalAlign=top;align=left;overflow=fill;fontSize=12;fontFamily=Helvetica;html=1;" parent="1" vertex="1">
          <mxGeometry x="20" y="30" width="250" height="350" as="geometry" />
        </mxCell>
        <mxCell id="VIcqP-cVeVQAgqPRvZzL-2" value="&lt;p style=&quot;margin:0px;margin-top:4px;text-align:center;&quot;&gt;&lt;i&gt;&amp;lt;&amp;lt;CRC&amp;gt;&amp;gt;&lt;/i&gt;&lt;br&gt;&lt;b&gt;Trainer&lt;/b&gt;&lt;/p&gt;&lt;hr size=&quot;1&quot;&gt;&lt;p style=&quot;margin:0px;margin-left:4px;&quot;&gt;&lt;span style=&quot;font-size: 16px;&quot;&gt;Обязанности&lt;/span&gt;&lt;br&gt;&lt;/p&gt;&lt;p style=&quot;margin:0px;margin-left:4px;&quot;&gt;- Войти в систему&lt;br&gt;- Зарегистрироваться как тренер&lt;/p&gt;&lt;p style=&quot;margin:0px;margin-left:4px;&quot;&gt;-&amp;nbsp;Создавать расписания занятий и&lt;/p&gt;&lt;p style=&quot;margin:0px;margin-left:4px;&quot;&gt;&amp;nbsp;проверять участников&lt;br&gt;&lt;/p&gt;&lt;p style=&quot;margin:0px;margin-left:4px;&quot;&gt;- Создать график диеты,&amp;nbsp;дать идеи о&amp;nbsp;&lt;/p&gt;&lt;p style=&quot;margin:0px;margin-left:4px;&quot;&gt;построении разумной диеты&lt;br&gt;&lt;/p&gt;&lt;p style=&quot;margin:0px;margin-left:4px;&quot;&gt;- Делать отчеты по разделам для админа&lt;/p&gt;&lt;p style=&quot;margin:0px;margin-left:4px;&quot;&gt;&lt;br&gt;&lt;/p&gt;&lt;p style=&quot;margin:0px;margin-left:4px;&quot;&gt;&lt;br&gt;&lt;/p&gt;&lt;p style=&quot;margin:0px;margin-left:4px;&quot;&gt;&lt;br&gt;&lt;/p&gt;&lt;hr size=&quot;1&quot;&gt;&lt;p style=&quot;margin:0px;margin-left:4px;&quot;&gt;&lt;span style=&quot;font-size: 16px;&quot;&gt;Сотрудничество&lt;/span&gt;&lt;br&gt;&lt;/p&gt;&lt;p style=&quot;margin:0px;margin-left:4px;&quot;&gt;- ClassDB&lt;br&gt;&lt;/p&gt;&lt;p style=&quot;margin:0px;margin-left:4px;&quot;&gt;- StudentDB&lt;/p&gt;&lt;p style=&quot;margin:0px;margin-left:4px;&quot;&gt;- Статьи, отчеты&lt;br&gt;&lt;/p&gt;" style="verticalAlign=top;align=left;overflow=fill;fontSize=12;fontFamily=Helvetica;html=1;" parent="1" vertex="1">
          <mxGeometry x="288.5" y="30" width="250" height="350" as="geometry" />
        </mxCell>
        <mxCell id="VIcqP-cVeVQAgqPRvZzL-3" value="&lt;p style=&quot;margin:0px;margin-top:4px;text-align:center;&quot;&gt;&lt;i&gt;&amp;lt;&amp;lt;CRC&amp;gt;&amp;gt;&lt;/i&gt;&lt;br&gt;&lt;b&gt;User&lt;/b&gt;&lt;/p&gt;&lt;hr size=&quot;1&quot;&gt;&lt;p style=&quot;margin:0px;margin-left:4px;&quot;&gt;&lt;span style=&quot;font-size: 16px;&quot;&gt;Обязанности&lt;/span&gt;&lt;br&gt;&lt;/p&gt;&lt;p style=&quot;margin:0px;margin-left:4px;&quot;&gt;- Войти в систему&lt;br&gt;- Зарегистрироваться как член фитнес-класса&lt;/p&gt;&lt;p style=&quot;margin:0px;margin-left:4px;&quot;&gt;-&amp;nbsp;Просматривать товары для фитнеса,&amp;nbsp;&lt;/p&gt;&lt;p style=&quot;margin:0px;margin-left:4px;&quot;&gt;покупать и оплачивать желаемые товары&lt;br&gt;&lt;/p&gt;&lt;p style=&quot;margin:0px;margin-left:4px;&quot;&gt;- Найти и записаться на физкультуру&lt;br&gt;&lt;/p&gt;&lt;p style=&quot;margin:0px;margin-left:4px;&quot;&gt;-управлять, обновлять личную информацию,&amp;nbsp;&lt;/p&gt;&lt;p style=&quot;margin:0px;margin-left:4px;&quot;&gt;изменять пакет файлов&lt;/p&gt;&lt;p style=&quot;margin:0px;margin-left:4px;&quot;&gt;-Оставлять комментарии, отзывы о товарах&lt;/p&gt;&lt;p style=&quot;margin:0px;margin-left:4px;&quot;&gt;&amp;nbsp;для бодибилдинга и статьи о фитнесе&lt;/p&gt;&lt;p style=&quot;margin:0px;margin-left:4px;&quot;&gt;&lt;br&gt;&lt;/p&gt;&lt;hr size=&quot;1&quot;&gt;&lt;p style=&quot;margin:0px;margin-left:4px;&quot;&gt;&lt;span style=&quot;font-size: 16px;&quot;&gt;Сотрудничество&lt;/span&gt;&lt;br&gt;&lt;/p&gt;&lt;p style=&quot;margin:0px;margin-left:4px;&quot;&gt;-&amp;nbsp;Персональные данные&lt;br&gt;-&amp;nbsp;Фитнес-сервис системы&lt;/p&gt;" style="verticalAlign=top;align=left;overflow=fill;fontSize=12;fontFamily=Helvetica;html=1;" parent="1" vertex="1">
          <mxGeometry x="570" y="30" width="270" height="350" as="geometry" />
        </mxCell>
      </root>
    </mxGraphModel>
  </diagram>
  <diagram name="Bản sao của CRC-карта обьекта" id="1unxeApCzGu91uAtzjBp">
    <mxGraphModel dx="1262" dy="619" grid="1" gridSize="10" guides="1" tooltips="1" connect="1" arrows="1" fold="1" page="1" pageScale="1" pageWidth="900" pageHeight="400" math="0" shadow="0">
      <root>
        <mxCell id="DYT0k5oOsL-uoCTxNZaN-0" />
        <mxCell id="DYT0k5oOsL-uoCTxNZaN-1" parent="DYT0k5oOsL-uoCTxNZaN-0" />
        <mxCell id="DYT0k5oOsL-uoCTxNZaN-2" value="&lt;p style=&quot;margin:0px;margin-top:4px;text-align:center;&quot;&gt;&lt;i&gt;&amp;lt;&amp;lt;CRC&amp;gt;&amp;gt;&lt;/i&gt;&lt;br&gt;&lt;/p&gt;&lt;p style=&quot;margin:0px;margin-top:4px;text-align:center;&quot;&gt;&lt;i&gt;Общее проектирование модели функциональности обьектов в системе&lt;/i&gt;&lt;/p&gt;&lt;hr size=&quot;1&quot;&gt;&lt;p style=&quot;margin:0px;margin-left:4px;&quot;&gt;&lt;font style=&quot;font-size: 16px;&quot;&gt;Обьекты&lt;/font&gt;&lt;/p&gt;&lt;p style=&quot;margin:0px;margin-left:4px;&quot;&gt;- Администратор&lt;/p&gt;&lt;p style=&quot;margin:0px;margin-left:4px;&quot;&gt;- Тренер&lt;/p&gt;&lt;p style=&quot;margin:0px;margin-left:4px;&quot;&gt;- Обычный пользователь&lt;/p&gt;&lt;hr size=&quot;1&quot;&gt;&lt;p style=&quot;margin:0px;margin-left:4px;&quot;&gt;&lt;span style=&quot;font-size: 16px;&quot;&gt;Функциональность&lt;/span&gt;&lt;/p&gt;&lt;p style=&quot;margin:0px;margin-left:4px;&quot;&gt;-&amp;nbsp;Проверить разрешений и ролей объектов в системе&lt;br&gt;-&amp;nbsp;Назначение функций и определение возможностей объекта в системе&lt;/p&gt;&lt;p style=&quot;margin:0px;margin-left:4px;&quot;&gt;-&amp;nbsp;Реализовать функцию в соответствии с потребностями объекта в системе&lt;/p&gt;" style="verticalAlign=top;align=left;overflow=fill;fontSize=12;fontFamily=Helvetica;html=1;" parent="DYT0k5oOsL-uoCTxNZaN-1" vertex="1">
          <mxGeometry x="150" y="60" width="570" height="240" as="geometry" />
        </mxCell>
      </root>
    </mxGraphModel>
  </diagram>
</mxfile>
